#N canvas 4 53 829 513 10;
#X obj 204 18 inlet;
#X obj 17 19 inlet;
#X text 52 20 knob value;
#X text 243 20 trigger;
#X obj 18 417 outlet;
#X obj 18 387 pack 0 0;
#X obj 107 135 v \$0-save;
#X obj 265 166 1;
#X obj 180 115 v \$0-save;
#X obj 80 158 ==;
#X obj 80 194 sel 0 1;
#X obj 80 298 0;
#X obj 31 239 1;
#X obj 18 355 i;
#X obj 265 207 t b a;
#X obj 80 79 spigot 0;
#X obj 80 109 t a b;
#X obj 80 267 t b b, f 11;
#X obj 143 299 0;
#X obj 143 322 s \$0-valve;
#X obj 123 50 r \$0-valve;
#X obj 327 110 s \$0-valve;
#X obj 327 83 1;
#X obj 204 41 t b b b, f 21;
#X obj 17 42 t a a a, f 11;
#X obj 180 81 i;
#X connect 0 0 23 0;
#X connect 1 0 24 0;
#X connect 5 0 4 0;
#X connect 6 0 9 1;
#X connect 7 0 14 0;
#X connect 9 0 10 0;
#X connect 10 0 17 0;
#X connect 10 1 12 0;
#X connect 11 0 5 1;
#X connect 12 0 5 1;
#X connect 13 0 5 0;
#X connect 14 0 13 0;
#X connect 14 1 5 1;
#X connect 15 0 16 0;
#X connect 16 0 9 0;
#X connect 16 1 6 0;
#X connect 17 0 11 0;
#X connect 17 1 18 0;
#X connect 18 0 19 0;
#X connect 20 0 15 1;
#X connect 22 0 21 0;
#X connect 23 0 25 0;
#X connect 23 1 7 0;
#X connect 23 2 22 0;
#X connect 24 0 13 0;
#X connect 24 1 15 0;
#X connect 24 2 25 1;
#X connect 25 0 8 0;
