#N canvas 521 121 1218 759 10;
#X obj 562 206 pack;
#X text 737 169 pins are SR LOAD \, CLOCK and DATA 4th argument is
number bits to shift, f 27;
#X obj 58 171 rpi_gpio_mcp3008, f 36;
#X floatatom 225 220 5 0 0 0 - - -, f 5;
#X floatatom 174 220 5 0 0 0 - - -, f 5;
#X floatatom 129 220 5 0 0 0 - - -, f 5;
#X floatatom 81 216 5 0 0 0 - - -, f 5;
#X floatatom 39 216 5 0 0 0 - - -, f 5;
#X obj 60 138 metro 50;
#X obj 197 103 tgl 15 0 empty empty empty 17 7 0 10 -262144 -1 -1 0
1;
#X obj 197 31 packOSC;
#X obj 197 67 udpsend;
#X obj 165 -25 r oscOut;
#X text 222 104 connected to mother background program;
#X msg 268 29 connect localhost 4000;
#X obj 62 278 pack 0 0 0 0 0;
#X obj 61 334 s oscOut;
#X msg 60 305 sendtyped /knobs iiiiii \$1 \$2 \$3 \$4 \$5 0;
#X obj 512 147 metro 10;
#X obj 281 445 s oscOut;
#X obj 525 181 rpi_gpio_shiftin 34 32 33 16;
#X obj 467 -78 loadbang;
#X obj 780 336 change -1;
#X obj 780 385 tgl 15 0 empty empty empty 17 7 0 10 -262144 -1 -1 0
1;
#X obj 37 94 loadbang;
#X obj 303 -14 metro 1000;
#X obj 1041 303 change -1;
#X obj 1041 352 tgl 15 0 empty empty empty 17 7 0 10 -262144 -1 -1
0 1;
#X obj 923 336 change -1;
#X obj 923 385 tgl 15 0 empty empty empty 17 7 0 10 -262144 -1 -1 0
1;
#X obj 708 334 change -1;
#X obj 708 383 tgl 15 0 empty empty empty 17 7 0 10 -262144 -1 -1 0
1;
#X obj 639 335 change -1;
#X obj 639 384 tgl 15 0 empty empty empty 17 7 0 10 -262144 -1 -1 0
1;
#X obj 566 335 change -1;
#X obj 566 384 tgl 15 0 empty empty empty 17 7 0 10 -262144 -1 -1 0
1;
#X obj 923 360 == 0;
#X obj 1041 327 == 0;
#X obj 780 360 == 0;
#X obj 708 358 == 0;
#X obj 639 359 == 0;
#X obj 566 359 == 0;
#X obj 496 335 change -1;
#X obj 496 384 tgl 15 0 empty empty empty 17 7 0 10 -262144 -1 -1 0
1;
#X obj 496 359 == 0;
#X obj 425 337 change -1;
#X obj 425 386 tgl 15 0 empty empty empty 17 7 0 10 -262144 -1 -1 0
1;
#X obj 425 361 == 0;
#X obj 353 337 change -1;
#X obj 353 386 tgl 15 0 empty empty empty 17 7 0 10 -262144 -1 -1 0
1;
#X obj 353 361 == 0;
#X obj 281 335 change -1;
#X obj 281 384 tgl 15 0 empty empty empty 17 7 0 10 -262144 -1 -1 0
1;
#X obj 281 359 == 0;
#X obj 353 473 s oscOut;
#X obj 424 509 s oscOut;
#X obj 498 549 s oscOut;
#X obj 564 444 s oscOut;
#X obj 635 472 s oscOut;
#X obj 705 508 s oscOut;
#X obj 784 543 s oscOut;
#X obj 1041 402 s oscOut;
#X obj 926 486 s oscOut;
#X msg 498 524 sendtyped /key ii 4 \$1;
#X msg 353 448 sendtyped /key ii 6 \$1;
#X obj 591 119 rpi_gpio 35 0 1;
#X msg 590 93 0;
#X text 660 96 have to pull clock en low;
#X obj 467 -56 t b b b b;
#X msg 784 518 sendtyped /key ii 1 \$1;
#X msg 1041 377 sendtyped /key ii 2 \$1;
#X msg 926 461 sendtyped /key ii 3 \$1;
#X msg 635 447 sendtyped /key ii 5 \$1;
#X msg 705 483 sendtyped /key ii 7 \$1;
#X msg 564 419 sendtyped /key ii 8 \$1;
#X msg 424 484 sendtyped /key ii 9 \$1;
#X msg 281 420 sendtyped /key ii 10 \$1;
#X obj 564 233 t a a;
#X obj 537 270 spigot 1;
#X obj 484 292 route 0 1 2 3 4 5 6 7 8 9 10 11 12 13 14 15;
#X obj 757 260 route 14;
#X obj 1013 329 tgl 15 0 empty empty empty 17 7 0 10 -262144 -1 -1
1 1;
#X obj 69 445 spigot 0;
#X obj 68 472 route 3 5;
#X obj 67 497 change -1;
#X obj 67 521 == 0;
#X obj 62 544 tgl 15 0 empty empty empty 17 7 0 10 -262144 -1 -1 0
1;
#X obj 172 497 change -1;
#X obj 172 521 == 0;
#X obj 167 544 tgl 15 0 empty empty empty 17 7 0 10 -262144 -1 -1 0
1;
#X obj 200 620 shell;
#X obj 196 558 sel 1;
#X obj 54 568 sel 1;
#X obj 200 642 print;
#X obj 58 626 shell;
#X msg 63 596 ./start-oflua.sh;
#X obj 58 648 print;
#X msg 205 590 ./start-pygame.sh;
#X connect 0 0 77 0;
#X connect 2 0 7 0;
#X connect 2 1 6 0;
#X connect 2 2 5 0;
#X connect 2 3 4 0;
#X connect 2 4 3 0;
#X connect 3 0 15 0;
#X connect 4 0 15 4;
#X connect 5 0 15 1;
#X connect 6 0 15 3;
#X connect 7 0 15 2;
#X connect 8 0 2 0;
#X connect 10 0 11 0;
#X connect 11 0 9 0;
#X connect 12 0 10 0;
#X connect 14 0 11 0;
#X connect 15 0 17 0;
#X connect 17 0 16 0;
#X connect 18 0 20 0;
#X connect 20 0 0 0;
#X connect 20 1 0 1;
#X connect 21 0 68 0;
#X connect 22 0 38 0;
#X connect 23 0 69 0;
#X connect 24 0 8 0;
#X connect 25 0 14 0;
#X connect 26 0 37 0;
#X connect 26 0 81 0;
#X connect 27 0 70 0;
#X connect 27 0 82 1;
#X connect 28 0 36 0;
#X connect 29 0 71 0;
#X connect 30 0 39 0;
#X connect 31 0 73 0;
#X connect 32 0 40 0;
#X connect 33 0 72 0;
#X connect 34 0 41 0;
#X connect 35 0 74 0;
#X connect 36 0 29 0;
#X connect 37 0 27 0;
#X connect 38 0 23 0;
#X connect 39 0 31 0;
#X connect 40 0 33 0;
#X connect 41 0 35 0;
#X connect 42 0 44 0;
#X connect 43 0 63 0;
#X connect 44 0 43 0;
#X connect 45 0 47 0;
#X connect 46 0 75 0;
#X connect 47 0 46 0;
#X connect 48 0 50 0;
#X connect 49 0 64 0;
#X connect 50 0 49 0;
#X connect 51 0 53 0;
#X connect 52 0 76 0;
#X connect 53 0 52 0;
#X connect 63 0 56 0;
#X connect 64 0 54 0;
#X connect 66 0 65 0;
#X connect 68 0 25 0;
#X connect 68 1 8 0;
#X connect 68 2 18 0;
#X connect 68 3 66 0;
#X connect 69 0 60 0;
#X connect 70 0 61 0;
#X connect 71 0 62 0;
#X connect 72 0 58 0;
#X connect 73 0 59 0;
#X connect 74 0 57 0;
#X connect 75 0 55 0;
#X connect 76 0 19 0;
#X connect 77 0 78 0;
#X connect 77 0 82 0;
#X connect 77 1 80 0;
#X connect 78 0 79 0;
#X connect 79 0 51 0;
#X connect 79 1 48 0;
#X connect 79 2 45 0;
#X connect 79 3 42 0;
#X connect 79 4 34 0;
#X connect 79 5 32 0;
#X connect 79 6 30 0;
#X connect 79 7 22 0;
#X connect 79 15 28 0;
#X connect 80 0 26 0;
#X connect 81 0 78 1;
#X connect 82 0 83 0;
#X connect 83 0 84 0;
#X connect 83 1 87 0;
#X connect 84 0 85 0;
#X connect 85 0 86 0;
#X connect 86 0 92 0;
#X connect 87 0 88 0;
#X connect 88 0 89 0;
#X connect 89 0 91 0;
#X connect 90 0 93 0;
#X connect 91 0 97 0;
#X connect 92 0 95 0;
#X connect 94 0 96 0;
#X connect 95 0 94 0;
#X connect 97 0 90 0;
