#N canvas 65 50 1139 660 10;
#X obj 122 292 tgl 15 0 empty empty empty 17 7 0 10 -262144 -1 -1 0
1;
#X obj 122 220 packOSC;
#X obj 122 256 udpsend;
#X obj 109 174 r oscOut;
#X msg 193 218 connect localhost 4000;
#X obj 192 174 metro 1000;
#N canvas 8 50 1189 600 knobs-keys 0;
#X obj 626 186 pack;
#X text 829 132 pins are SR LOAD \, CLOCK and DATA 4th argument is
number bits to shift, f 27;
#X obj 58 171 rpi_gpio_mcp3008, f 36;
#X floatatom 225 220 5 0 0 0 - - -, f 5;
#X floatatom 174 220 5 0 0 0 - - -, f 5;
#X floatatom 129 220 5 0 0 0 - - -, f 5;
#X floatatom 81 216 5 0 0 0 - - -, f 5;
#X floatatom 39 216 5 0 0 0 - - -, f 5;
#X obj 60 138 metro 50;
#X obj 62 278 pack 0 0 0 0 0;
#X obj 61 334 s oscOut;
#X msg 60 305 sendtyped /knobs iiiiii \$1 \$2 \$3 \$4 \$5 0;
#X obj 373 408 s oscOut;
#X obj 617 144 rpi_gpio_shiftin 34 32 33 16;
#X obj 872 299 change -1;
#X obj 872 348 tgl 15 0 empty empty empty 17 7 0 10 -262144 -1 -1 0
1;
#X obj 943 303 change -1;
#X obj 943 352 tgl 15 0 empty empty empty 17 7 0 10 -262144 -1 -1 0
1;
#X obj 1015 299 change -1;
#X obj 1015 348 tgl 15 0 empty empty empty 17 7 0 10 -262144 -1 -1
0 1;
#X obj 800 297 change -1;
#X obj 800 346 tgl 15 0 empty empty empty 17 7 0 10 -262144 -1 -1 0
1;
#X obj 731 298 change -1;
#X obj 731 347 tgl 15 0 empty empty empty 17 7 0 10 -262144 -1 -1 0
1;
#X obj 658 298 change -1;
#X obj 658 347 tgl 15 0 empty empty empty 17 7 0 10 -262144 -1 -1 0
1;
#X obj 1015 323 == 0;
#X obj 943 327 == 0;
#X obj 872 323 == 0;
#X obj 800 321 == 0;
#X obj 731 322 == 0;
#X obj 658 322 == 0;
#X obj 588 298 change -1;
#X obj 588 374 tgl 15 0 empty empty empty 17 7 0 10 -262144 -1 -1 0
1;
#X obj 589 344 == 0;
#X obj 517 300 change -1;
#X obj 517 349 tgl 15 0 empty empty empty 17 7 0 10 -262144 -1 -1 0
1;
#X obj 517 324 == 0;
#X obj 445 300 change -1;
#X obj 445 349 tgl 15 0 empty empty empty 17 7 0 10 -262144 -1 -1 0
1;
#X obj 445 324 == 0;
#X obj 373 298 change -1;
#X obj 373 347 tgl 15 0 empty empty empty 17 7 0 10 -262144 -1 -1 0
1;
#X obj 373 322 == 0;
#X obj 445 436 s oscOut;
#X obj 516 472 s oscOut;
#X obj 590 512 s oscOut;
#X obj 656 407 s oscOut;
#X obj 727 435 s oscOut;
#X obj 797 471 s oscOut;
#X obj 876 506 s oscOut;
#X obj 943 402 s oscOut;
#X obj 1018 449 s oscOut;
#X msg 590 487 sendtyped /key ii 4 \$1;
#X msg 445 411 sendtyped /key ii 6 \$1;
#X obj 683 82 rpi_gpio 35 0 1;
#X msg 682 56 0;
#X text 752 59 have to pull clock en low;
#X msg 876 481 sendtyped /key ii 1 \$1;
#X msg 943 377 sendtyped /key ii 2 \$1;
#X msg 1018 424 sendtyped /key ii 3 \$1;
#X msg 727 410 sendtyped /key ii 5 \$1;
#X msg 797 446 sendtyped /key ii 7 \$1;
#X msg 656 382 sendtyped /key ii 8 \$1;
#X msg 516 447 sendtyped /key ii 9 \$1;
#X msg 373 383 sendtyped /key ii 10 \$1;
#X obj 576 255 route 0 1 2 3 4 5 6 7 8 9 10 11 12 13 14 15;
#X obj 467 -78 inlet;
#X obj 467 -56 t b b b;
#X obj 604 110 metro 5;
#X connect 0 0 66 0;
#X connect 2 0 7 0;
#X connect 2 1 6 0;
#X connect 2 2 5 0;
#X connect 2 3 4 0;
#X connect 2 4 3 0;
#X connect 3 0 9 0;
#X connect 4 0 9 4;
#X connect 5 0 9 1;
#X connect 6 0 9 3;
#X connect 7 0 9 2;
#X connect 8 0 2 0;
#X connect 9 0 11 0;
#X connect 11 0 10 0;
#X connect 13 0 0 0;
#X connect 13 1 0 1;
#X connect 14 0 28 0;
#X connect 15 0 58 0;
#X connect 16 0 27 0;
#X connect 17 0 59 0;
#X connect 18 0 26 0;
#X connect 19 0 60 0;
#X connect 20 0 29 0;
#X connect 21 0 62 0;
#X connect 22 0 30 0;
#X connect 23 0 61 0;
#X connect 24 0 31 0;
#X connect 25 0 63 0;
#X connect 26 0 19 0;
#X connect 27 0 17 0;
#X connect 28 0 15 0;
#X connect 29 0 21 0;
#X connect 30 0 23 0;
#X connect 31 0 25 0;
#X connect 32 0 34 0;
#X connect 33 0 53 0;
#X connect 34 0 33 0;
#X connect 35 0 37 0;
#X connect 36 0 64 0;
#X connect 37 0 36 0;
#X connect 38 0 40 0;
#X connect 39 0 54 0;
#X connect 40 0 39 0;
#X connect 41 0 43 0;
#X connect 42 0 65 0;
#X connect 43 0 42 0;
#X connect 53 0 46 0;
#X connect 54 0 44 0;
#X connect 56 0 55 0;
#X connect 58 0 50 0;
#X connect 59 0 51 0;
#X connect 60 0 52 0;
#X connect 61 0 48 0;
#X connect 62 0 49 0;
#X connect 63 0 47 0;
#X connect 64 0 45 0;
#X connect 65 0 12 0;
#X connect 66 0 41 0;
#X connect 66 1 38 0;
#X connect 66 2 35 0;
#X connect 66 3 32 0;
#X connect 66 4 24 0;
#X connect 66 5 22 0;
#X connect 66 6 20 0;
#X connect 66 7 14 0;
#X connect 66 14 16 0;
#X connect 66 15 18 0;
#X connect 67 0 68 0;
#X connect 68 0 8 0;
#X connect 68 1 69 0;
#X connect 68 2 56 0;
#X connect 69 0 13 0;
#X restore 324 114 pd knobs-keys;
#X obj 270 55 loadbang;
#X obj 270 77 t b b;
#X obj 460 187 udpreceive 4001;
#X obj 460 209 unpackOSC;
#X obj 459 235 s oscIn;
#N canvas 5 50 507 353 led 0;
#X obj 182 292 rpi_gpio 22 0 1;
#X obj 63 293 rpi_gpio 23 0 1;
#X obj 299 294 rpi_gpio 24 0 1;
#X obj 180 50 routeOSC /led;
#X obj 181 77 % 8;
#X obj 182 110 t f f f;
#X obj 182 132 int;
#X obj 202 160 int;
#X obj 227 130 int;
#X obj 235 204 & 1;
#X obj 198 207 & 1;
#X obj 156 207 & 1;
#X obj 198 185 >> 1;
#X obj 156 185 >> 0;
#X obj 235 182 >> 2;
#X obj 185 24 r oscIn;
#X obj 147 235 == 0;
#X obj 196 232 == 0;
#X obj 245 232 == 0;
#X connect 3 0 4 0;
#X connect 4 0 5 0;
#X connect 5 0 6 0;
#X connect 5 1 7 0;
#X connect 5 2 8 0;
#X connect 6 0 13 0;
#X connect 7 0 12 0;
#X connect 8 0 14 0;
#X connect 9 0 18 0;
#X connect 10 0 17 0;
#X connect 11 0 16 0;
#X connect 12 0 10 0;
#X connect 13 0 11 0;
#X connect 14 0 9 0;
#X connect 15 0 3 0;
#X connect 16 0 1 0;
#X connect 17 0 0 0;
#X connect 18 0 2 0;
#X restore 444 114 pd led;
#X text 147 293 connected;
#X connect 1 0 2 0;
#X connect 2 0 0 0;
#X connect 3 0 1 0;
#X connect 4 0 2 0;
#X connect 5 0 4 0;
#X connect 7 0 8 0;
#X connect 8 0 5 0;
#X connect 8 1 6 0;
#X connect 9 0 10 0;
#X connect 10 0 11 0;
