#N canvas 105 53 1518 714 10;
#X obj 108 350 tgl 15 0 empty empty empty 17 7 0 10 -262144 -1 -1 0
1;
#X obj 108 278 packOSC;
#X obj 108 314 udpsend;
#X obj 41 170 r oscOut;
#X msg 171 278 connect localhost 4000;
#X obj 205 160 metro 1000;
#X obj 270 55 loadbang;
#X obj 108 87 udpreceive 4001;
#X obj 108 109 unpackOSC;
#X obj 107 135 s oscIn;
#X text 133 351 connected;
#X obj 295 206 shell;
#X msg 295 178 ./pd_loaded.sh;
#X obj 295 152 delay 100;
#N canvas 51 292 1040 523 midi 0;
#X obj 60 40 notein;
#X text 60 16 MIDI IN;
#X obj 329 38 ctlin;
#X obj 29 137 pack 0 0;
#X msg 25 274 sendtyped /midinote ii \$1 \$2;
#X obj 336 142 pack 0 0;
#X msg 336 222 sendtyped /midicc ii \$1 \$2;
#X obj 333 389 s oscOut;
#X obj 499 52 r midiCh;
#X obj 449 98 i 1;
#X obj 419 143 ==;
#X obj 399 74 t f b;
#X obj 351 180 spigot;
#X obj 42 183 spigot;
#X obj 222 57 r midiCh;
#X obj 172 103 i 1;
#X obj 142 148 ==;
#X obj 122 79 t f b;
#X obj 115 238 s midiNoteIn;
#X obj 808 56 r midiCh;
#X obj 758 102 i 1;
#X obj 728 147 ==;
#X obj 708 78 t f b;
#X obj 660 184 spigot;
#X obj 638 42 pgmin;
#X msg 630 226 sendtyped /midipgm i \$1;
#X obj 644 281 print;
#X connect 0 0 3 0;
#X connect 0 1 3 1;
#X connect 0 2 17 0;
#X connect 2 0 5 0;
#X connect 2 1 5 1;
#X connect 2 2 11 0;
#X connect 3 0 13 0;
#X connect 4 0 7 0;
#X connect 5 0 12 0;
#X connect 6 0 7 0;
#X connect 8 0 9 1;
#X connect 9 0 10 1;
#X connect 10 0 12 1;
#X connect 11 0 10 0;
#X connect 11 1 9 0;
#X connect 12 0 6 0;
#X connect 13 0 4 0;
#X connect 13 0 18 0;
#X connect 14 0 15 1;
#X connect 15 0 16 1;
#X connect 16 0 13 1;
#X connect 17 0 16 0;
#X connect 17 1 15 0;
#X connect 19 0 20 1;
#X connect 20 0 21 1;
#X connect 21 0 23 1;
#X connect 22 0 21 0;
#X connect 22 1 20 0;
#X connect 23 0 25 0;
#X connect 24 0 23 0;
#X connect 24 1 22 0;
#X connect 25 0 7 0;
#X connect 25 0 26 0;
#X restore 714 97 pd midi;
#N canvas 83 50 1168 585 shift-params 0;
#X obj 272 1 r shiftKey;
#X obj 375 106 == 0;
#X obj 401 141 s enableKnobs;
#X obj 205 332 spigot 0;
#X obj 198 415 i;
#X obj 566 423 i;
#X obj 566 377 * 16;
#X obj 566 399 + 1;
#X obj 566 353 / 1024;
#X obj 394 428 i;
#X obj 394 404 + 1;
#X obj 394 358 / 1024;
#X floatatom 582 457 5 0 0 0 - - -;
#X floatatom 421 459 5 0 0 0 - - -;
#X floatatom 213 446 5 0 0 0 - - -;
#X obj 882 395 textfile;
#X msg 1054 242 clear;
#X msg 833 259 add midiCh \$1;
#X msg 874 292 add trigSource \$1;
#X msg 905 321 add inputGain \$1;
#X obj 197 508 s inputGain;
#X obj 385 501 s trigSource;
#X obj 570 504 s midiCh;
#X obj 860 166 r midiCh;
#X obj 908 188 r trigSource;
#X obj 972 207 r inputGain;
#X obj 941 236 i 100;
#X obj 889 226 i 0;
#X obj 846 214 i 1;
#X obj 893 130 t b b b b;
#X obj 828 54 bng 15 250 50 0 empty empty empty 17 7 0 10 -262144 -1
-1;
#X obj 194 282 r knob1;
#X obj 388 330 spigot 0;
#X obj 555 320 spigot 0;
#X obj 379 290 r knob2;
#X obj 557 291 r knob3;
#N canvas 11 50 1188 455 shift-display 0;
#X msg 79 153 sendtyped /shift i \$1;
#X obj 387 421 s oscOut;
#X msg 268 159 send /sline 0 Input Gain \$1 %;
#X msg 952 302 send /sline 2 MIDI Channel \$1;
#X msg 550 317 send /sline 1 Trigger Source MIDI Notes;
#X msg 481 200 send /sline 1 Trigger Source Audio;
#X obj 239 76 r inputGain;
#X obj 451 67 r trigSource;
#X obj 858 66 r midiCh;
#X obj 77 48 inlet;
#X text 108 121 enable overlay;
#X msg 502 221 send /sline 1 Trigger Source LINK Quarter Note;
#X msg 516 242 send /sline 1 Trigger Source LINK Eighth Note;
#X msg 521 267 send /sline 1 Trigger Source MIDI Clock Quarter Note
;
#X msg 537 290 send /sline 1 Trigger Source MIDI Clock Eighth Note
;
#X obj 502 168 sel 1 2 3 4 5 6;
#X connect 0 0 1 0;
#X connect 2 0 1 0;
#X connect 3 0 1 0;
#X connect 4 0 1 0;
#X connect 5 0 1 0;
#X connect 6 0 2 0;
#X connect 7 0 15 0;
#X connect 8 0 3 0;
#X connect 9 0 0 0;
#X connect 11 0 1 0;
#X connect 12 0 1 0;
#X connect 13 0 1 0;
#X connect 14 0 1 0;
#X connect 15 0 5 0;
#X connect 15 1 11 0;
#X connect 15 2 12 0;
#X connect 15 3 13 0;
#X connect 15 4 14 0;
#X connect 15 5 4 0;
#X restore 68 168 pd shift-display;
#X obj 212 166 s enableShift;
#X obj 281 93 == 1;
#X obj 273 260 r enableShift;
#X obj 458 268 r enableShift;
#X obj 637 284 r enableShift;
#X obj 271 62 t f f f;
#X obj 282 119 t f f;
#X obj 330 156 sel 1 0;
#X obj 420 209 s saveShiftParams;
#X obj 253 213 s recallShiftParams;
#X obj 739 28 r saveShiftParams;
#X obj 827 76 t b b;
#X msg 617 129 write /sdcard/System/shift-params.txt;
#X obj 1036 286 bng 15 250 50 0 empty empty empty 17 7 0 10 -262144
-1 -1;
#X obj 855 428 route inputGain trigSource midiCh;
#X floatatom 850 456 5 0 0 0 - - -;
#X floatatom 927 454 5 0 0 0 - - -;
#X floatatom 1008 453 5 0 0 0 - - -;
#X obj 1075 281 r recallShiftParams;
#X obj 811 494 s inputGain;
#X obj 902 492 s trigSource;
#X obj 1007 492 s midiCh;
#X msg 1087 361 read /sdcard/System/shift-params.txt;
#X obj 1048 322 t b b b b b;
#X msg 1027 360 rewind;
#X obj 266 30 change 0;
#X text 338 34 ignore first 0;
#X obj 198 369 / 1023;
#X obj 198 393 * 301;
#X obj 394 382 * 6;
#X connect 0 0 62 0;
#X connect 1 0 2 0;
#X connect 3 0 64 0;
#X connect 4 0 14 0;
#X connect 4 0 20 0;
#X connect 5 0 12 0;
#X connect 5 0 22 0;
#X connect 6 0 7 0;
#X connect 7 0 5 0;
#X connect 8 0 6 0;
#X connect 9 0 13 0;
#X connect 9 0 21 0;
#X connect 10 0 9 0;
#X connect 11 0 66 0;
#X connect 15 0 51 0;
#X connect 16 0 15 0;
#X connect 17 0 15 0;
#X connect 18 0 15 0;
#X connect 19 0 15 0;
#X connect 23 0 28 1;
#X connect 24 0 27 1;
#X connect 25 0 26 1;
#X connect 26 0 19 0;
#X connect 27 0 18 0;
#X connect 28 0 17 0;
#X connect 29 0 28 0;
#X connect 29 1 27 0;
#X connect 29 2 26 0;
#X connect 29 3 16 0;
#X connect 30 0 48 0;
#X connect 31 0 3 0;
#X connect 32 0 11 0;
#X connect 33 0 8 0;
#X connect 34 0 32 0;
#X connect 35 0 33 0;
#X connect 38 0 43 0;
#X connect 39 0 3 1;
#X connect 40 0 32 1;
#X connect 41 0 33 1;
#X connect 42 0 36 0;
#X connect 42 1 38 0;
#X connect 42 2 1 0;
#X connect 43 0 37 0;
#X connect 43 1 44 0;
#X connect 44 0 46 0;
#X connect 44 1 45 0;
#X connect 47 0 48 0;
#X connect 48 0 49 0;
#X connect 48 1 29 0;
#X connect 49 0 15 0;
#X connect 50 0 60 0;
#X connect 51 0 52 0;
#X connect 51 1 53 0;
#X connect 51 2 54 0;
#X connect 52 0 56 0;
#X connect 53 0 57 0;
#X connect 54 0 58 0;
#X connect 55 0 60 0;
#X connect 59 0 15 0;
#X connect 60 0 15 0;
#X connect 60 1 15 0;
#X connect 60 2 15 0;
#X connect 60 3 61 0;
#X connect 60 4 59 0;
#X connect 61 0 15 0;
#X connect 62 0 42 0;
#X connect 64 0 65 0;
#X connect 65 0 4 0;
#X connect 66 0 10 0;
#X restore 715 123 pd shift-params;
#N canvas 87 53 1211 703 knobs-and-keys 0;
#X obj 626 186 pack;
#X text 829 132 pins are SR LOAD \, CLOCK and DATA 4th argument is
number bits to shift, f 27;
#X obj 92 75 rpi_gpio_mcp3008, f 36;
#X floatatom 332 121 5 0 0 0 - - -;
#X floatatom 259 118 5 0 0 0 - - -;
#X floatatom 188 120 5 0 0 0 - - -;
#X floatatom 115 120 5 0 0 0 - - -;
#X floatatom 73 120 5 0 0 0 - - -;
#X obj 83 42 metro 50;
#X obj 40 255 pack 0 0 0 0 0;
#X obj 60 561 s oscOut;
#X msg 59 467 sendtyped /knobs iiiiii \$1 \$2 \$3 \$4 \$5 0;
#X obj 373 408 s oscOut;
#X obj 617 144 rpi_gpio_shiftin 34 32 33 16;
#X obj 872 299 change -1;
#X obj 872 348 tgl 15 0 empty empty empty 17 7 0 10 -262144 -1 -1 0
1;
#X obj 943 303 change -1;
#X obj 943 352 tgl 15 0 empty empty empty 17 7 0 10 -262144 -1 -1 0
1;
#X obj 1015 299 change -1;
#X obj 1015 348 tgl 15 0 empty empty empty 17 7 0 10 -262144 -1 -1
0 1;
#X obj 800 297 change -1;
#X obj 800 346 tgl 15 0 empty empty empty 17 7 0 10 -262144 -1 -1 0
1;
#X obj 731 298 change -1;
#X obj 731 347 tgl 15 0 empty empty empty 17 7 0 10 -262144 -1 -1 0
1;
#X obj 658 298 change -1;
#X obj 658 347 tgl 15 0 empty empty empty 17 7 0 10 -262144 -1 -1 0
1;
#X obj 1015 323 == 0;
#X obj 943 327 == 0;
#X obj 872 323 == 0;
#X obj 800 321 == 0;
#X obj 731 322 == 0;
#X obj 658 322 == 0;
#X obj 588 298 change -1;
#X obj 588 374 tgl 15 0 empty empty empty 17 7 0 10 -262144 -1 -1 0
1;
#X obj 589 344 == 0;
#X obj 517 300 change -1;
#X obj 517 349 tgl 15 0 empty empty empty 17 7 0 10 -262144 -1 -1 0
1;
#X obj 517 324 == 0;
#X obj 445 300 change -1;
#X obj 445 349 tgl 15 0 empty empty empty 17 7 0 10 -262144 -1 -1 0
1;
#X obj 445 324 == 0;
#X obj 373 298 change -1;
#X obj 373 347 tgl 15 0 empty empty empty 17 7 0 10 -262144 -1 -1 0
1;
#X obj 373 322 == 0;
#X obj 445 436 s oscOut;
#X obj 516 472 s oscOut;
#X obj 590 512 s oscOut;
#X obj 656 407 s oscOut;
#X obj 727 435 s oscOut;
#X obj 797 471 s oscOut;
#X obj 876 506 s oscOut;
#X obj 1018 449 s oscOut;
#X msg 590 487 sendtyped /key ii 4 \$1;
#X msg 445 411 sendtyped /key ii 6 \$1;
#X obj 683 82 rpi_gpio 35 0 1;
#X msg 682 56 0;
#X text 752 59 have to pull clock en low;
#X msg 876 481 sendtyped /key ii 1 \$1;
#X msg 1018 424 sendtyped /key ii 3 \$1;
#X msg 727 410 sendtyped /key ii 5 \$1;
#X msg 797 446 sendtyped /key ii 7 \$1;
#X msg 656 382 sendtyped /key ii 8 \$1;
#X msg 516 447 sendtyped /key ii 9 \$1;
#X msg 373 383 sendtyped /key ii 10 \$1;
#X obj 576 255 route 0 1 2 3 4 5 6 7 8 9 10 11 12 13 14 15;
#X obj 471 -31 t b b b;
#X obj 63 524 spigot 1;
#X obj 118 499 r enableKnobs;
#X obj 936 406 s shiftKey;
#X obj 64 417 t a a;
#X obj 101 444 s knobs;
#X obj 467 -78 loadbang;
#X obj 332 144 smooth;
#X obj 332 167 change -1;
#X obj 332 193 s knob1;
#X obj 259 144 smooth;
#X obj 259 167 change -1;
#X obj 259 193 s knob5;
#X obj 188 143 smooth;
#X obj 188 166 change -1;
#X obj 188 192 s knob2;
#X obj 39 146 smooth;
#X obj 39 169 change -1;
#X obj 39 195 s knob3;
#X obj 114 144 smooth;
#X obj 114 167 change -1;
#X obj 114 193 s knob4;
#X text 402 148 knob vals used in pd;
#X text 155 257 stream raw vals to video engine;
#X obj 604 110 metro 8;
#X obj 471 -54 delay 110;
#X obj 529 26 delay 10;
#X obj 1037 385 s seq-but;
#X connect 0 0 64 0;
#X connect 2 0 7 0;
#X connect 2 1 6 0;
#X connect 2 2 5 0;
#X connect 2 3 4 0;
#X connect 2 4 3 0;
#X connect 3 0 72 0;
#X connect 3 0 9 0;
#X connect 4 0 75 0;
#X connect 4 0 9 4;
#X connect 5 0 78 0;
#X connect 5 0 9 1;
#X connect 6 0 84 0;
#X connect 6 0 9 3;
#X connect 7 0 81 0;
#X connect 7 0 9 2;
#X connect 8 0 2 0;
#X connect 11 0 66 0;
#X connect 13 0 0 0;
#X connect 13 1 0 1;
#X connect 14 0 28 0;
#X connect 15 0 57 0;
#X connect 16 0 27 0;
#X connect 17 0 68 0;
#X connect 18 0 26 0;
#X connect 19 0 58 0;
#X connect 19 0 92 0;
#X connect 20 0 29 0;
#X connect 21 0 60 0;
#X connect 22 0 30 0;
#X connect 23 0 59 0;
#X connect 24 0 31 0;
#X connect 25 0 61 0;
#X connect 26 0 19 0;
#X connect 27 0 17 0;
#X connect 28 0 15 0;
#X connect 29 0 21 0;
#X connect 30 0 23 0;
#X connect 31 0 25 0;
#X connect 32 0 34 0;
#X connect 33 0 52 0;
#X connect 34 0 33 0;
#X connect 35 0 37 0;
#X connect 36 0 62 0;
#X connect 37 0 36 0;
#X connect 38 0 40 0;
#X connect 39 0 53 0;
#X connect 40 0 39 0;
#X connect 41 0 43 0;
#X connect 42 0 63 0;
#X connect 43 0 42 0;
#X connect 52 0 46 0;
#X connect 53 0 44 0;
#X connect 55 0 54 0;
#X connect 57 0 50 0;
#X connect 58 0 51 0;
#X connect 59 0 48 0;
#X connect 60 0 49 0;
#X connect 61 0 47 0;
#X connect 62 0 45 0;
#X connect 63 0 12 0;
#X connect 64 0 41 0;
#X connect 64 1 38 0;
#X connect 64 2 35 0;
#X connect 64 3 32 0;
#X connect 64 4 24 0;
#X connect 64 5 22 0;
#X connect 64 6 20 0;
#X connect 64 7 14 0;
#X connect 64 14 16 0;
#X connect 64 15 18 0;
#X connect 65 0 8 0;
#X connect 65 1 91 0;
#X connect 65 2 55 0;
#X connect 66 0 10 0;
#X connect 67 0 66 1;
#X connect 69 0 11 0;
#X connect 69 1 70 0;
#X connect 71 0 90 0;
#X connect 72 0 73 0;
#X connect 73 0 74 0;
#X connect 75 0 76 0;
#X connect 76 0 77 0;
#X connect 78 0 79 0;
#X connect 79 0 80 0;
#X connect 81 0 82 0;
#X connect 82 0 83 0;
#X connect 84 0 85 0;
#X connect 85 0 86 0;
#X connect 89 0 13 0;
#X connect 90 0 65 0;
#X connect 91 0 89 0;
#X restore 713 45 pd knobs-and-keys;
#N canvas 17 50 614 316 wifi 0;
#N canvas 4 50 450 300 once 0;
#X obj 67 30 inlet;
#X obj 67 52 spigot 1;
#X obj 67 74 t a b;
#X obj 67 96 outlet;
#X msg 149 64 0;
#X connect 0 0 1 0;
#X connect 1 0 2 0;
#X connect 2 0 3 0;
#X connect 2 1 4 0;
#X connect 4 0 1 1;
#X restore 177 103 pd once;
#X obj 177 133 sel 0 1;
#X obj 77 243 shell;
#X obj 332 225 shell;
#N canvas 4 50 450 300 once 0;
#X obj 67 30 inlet;
#X obj 67 52 spigot 1;
#X obj 67 74 t a b;
#X obj 67 96 outlet;
#X msg 149 64 0;
#X connect 0 0 1 0;
#X connect 1 0 2 0;
#X connect 2 0 3 0;
#X connect 2 1 4 0;
#X connect 4 0 1 1;
#X restore 110 273 pd once;
#X msg 77 185 sudo systemctl start wpa_supplicant;
#X msg 134 214 sudo systemctl start dhcpcd;
#X msg 332 186 sudo systemctl start createap;
#X obj 177 68 r shiftKey;
#X msg 361 136 sudo systemctl stop createap;
#X connect 0 0 1 0;
#X connect 1 0 5 0;
#X connect 1 1 7 0;
#X connect 2 1 4 0;
#X connect 4 0 6 0;
#X connect 5 0 2 0;
#X connect 6 0 2 0;
#X connect 7 0 3 0;
#X connect 8 0 0 0;
#X connect 9 0 3 0;
#X restore 714 148 pd wifi;
#X obj 456 302 r inputGain;
#X obj 456 341 f;
#X obj 456 373 / 100;
#X msg 456 405 sendtyped /ascale f \$1;
#X obj 534 502 s oscOut;
#X obj 636 349 r link-session-present;
#X obj 993 48 r trigSource;
#X floatatom 993 70 5 0 0 0 - - -;
#X msg 410 178 \; pd dsp 1 \;;
#X msg 636 414 sendtyped /linkpresent i \$1;
#X obj 636 384 i;
#X floatatom 995 123 5 0 0 0 - - -;
#X obj 995 101 r midiCh;
#X obj 270 77 t b b b b;
#N canvas 10 53 507 353 led 0;
#X obj 182 292 rpi_gpio 22 0 1;
#X obj 63 293 rpi_gpio 23 0 1;
#X obj 299 294 rpi_gpio 24 0 1;
#X obj 180 50 routeOSC /led;
#X obj 181 77 % 8;
#X obj 182 110 t f f f;
#X obj 182 132 int;
#X obj 202 160 int;
#X obj 227 130 int;
#X obj 235 204 & 1;
#X obj 198 207 & 1;
#X obj 156 207 & 1;
#X obj 198 185 >> 1;
#X obj 156 185 >> 0;
#X obj 235 182 >> 2;
#X obj 185 24 r oscIn;
#X obj 147 235 == 0;
#X obj 196 232 == 0;
#X obj 245 232 == 0;
#X obj 103 30 r led;
#X connect 3 0 4 0;
#X connect 4 0 5 0;
#X connect 5 0 6 0;
#X connect 5 1 7 0;
#X connect 5 2 8 0;
#X connect 6 0 13 0;
#X connect 7 0 12 0;
#X connect 8 0 14 0;
#X connect 9 0 18 0;
#X connect 10 0 17 0;
#X connect 11 0 16 0;
#X connect 12 0 10 0;
#X connect 13 0 11 0;
#X connect 14 0 9 0;
#X connect 15 0 3 0;
#X connect 16 0 1 0;
#X connect 17 0 0 0;
#X connect 18 0 2 0;
#X connect 19 0 4 0;
#X restore 714 71 pd led;
#X obj 497 167 s recallShiftParams;
#X floatatom 995 174 5 0 0 0 - - -;
#X obj 995 152 r inputGain;
#N canvas 11 53 1017 677 metro-and-trig 0;
#X obj 392 298 r midiNoteIn;
#X obj 392 320 unpack 0 0;
#X obj 392 345 stripnote;
#X obj 392 373 bng 15 250 50 0 empty empty empty 17 7 0 10 -262144
-1 -1;
#X msg 275 512 sendtyped /trig i 1;
#X obj 520 309 r trigSource;
#X floatatom 521 356 5 0 0 0 - - -;
#X text 427 228 trigger sources are: 1 = Audio 2 = Link 1/4 3 = Link
1/8 4 = Midi clk 1/4 5 = Midi clk 1/8 6 = Midi notes;
#X obj 228 343 sel 0 180;
#X obj 315 344 sel 0 180;
#X obj 315 372 bng 15 250 50 0 empty empty empty 17 7 0 10 -262144
-1 -1;
#X obj 346 370 bng 15 250 50 0 empty empty empty 17 7 0 10 -262144
-1 -1;
#X obj 226 373 bng 15 250 50 0 empty empty empty 17 7 0 10 -262144
-1 -1;
#X obj 257 371 bng 15 250 50 0 empty empty empty 17 7 0 10 -262144
-1 -1;
#X msg 392 407 6;
#X msg 225 411 2;
#X msg 267 408 3;
#X msg 318 409 4;
#X msg 352 408 5;
#X obj 275 457 sel 0;
#X obj 520 391 t f f;
#X obj 556 417 sel 1;
#X msg 558 458 1;
#X obj 557 506 s audioTrigEnable;
#X obj 601 441 bang;
#X msg 603 471 0;
#X obj 275 546 s oscOut;
#X obj 231 291 spigot;
#X obj 312 188 r link-session-present;
#X connect 0 0 1 0;
#X connect 1 0 2 0;
#X connect 1 1 2 1;
#X connect 2 0 3 0;
#X connect 3 0 14 0;
#X connect 4 0 26 0;
#X connect 5 0 6 0;
#X connect 6 0 20 0;
#X connect 8 0 12 0;
#X connect 8 1 13 0;
#X connect 9 0 10 0;
#X connect 9 1 11 0;
#X connect 10 0 17 0;
#X connect 10 0 18 0;
#X connect 11 0 18 0;
#X connect 12 0 15 0;
#X connect 12 0 16 0;
#X connect 13 0 16 0;
#X connect 14 0 19 0;
#X connect 15 0 19 0;
#X connect 16 0 19 0;
#X connect 17 0 19 0;
#X connect 18 0 19 0;
#X connect 19 0 4 0;
#X connect 20 0 19 1;
#X connect 20 1 21 0;
#X connect 21 0 22 0;
#X connect 21 1 24 0;
#X connect 22 0 23 0;
#X connect 24 0 25 0;
#X connect 25 0 23 0;
#X connect 27 0 8 0;
#X connect 28 0 27 1;
#X restore 715 173 pd metro-and-trig;
#X text 1000 19 shift params;
#X obj 865 380 i;
#X msg 865 410 sendtyped /atrigen i \$1;
#X obj 865 338 r audioTrigEnable;
#X text 637 275 there isn't a mechanism for this patch to know when
the video engine is ready to receive params \, so we just send them
every second...;
#X obj 264 417 tgl 15 0 empty empty empty 17 7 0 10 -262144 -1 -1 0
1;
#X obj 263 441 s enableKnobs;
#X obj 108 390 s oscConnected;
#X obj 42 229 spigot 0;
#X obj 79 198 r oscConnected;
#X obj 224 218 delay 100;
#X obj 257 251 s ping;
#X obj 575 285 r ping;
#X obj 375 145 delay 200;
#N canvas 685 139 1136 905 knob-sequencer 1;
#X obj 193 544 seq/seq knob-seq;
#X obj 149 62 seq/metronome360;
#X obj 121 8 tgl 15 0 empty empty empty 17 7 0 10 -262144 -1 -1 0 1
;
#X floatatom 149 136 5 0 0 0 - - -;
#X msg 803 320 stop;
#X msg 678 341 arm;
#X text 780 366 beat clock \, events \, controls in;
#X text 780 380 events and status out;
#X text 704 313 arm recording;
#N canvas 84 99 1493 885 seq-button-control 1;
#X obj 658 350 f;
#X obj 658 297 sel 1;
#X floatatom 203 292 5 0 0 0 - - -;
#X obj 203 349 bng 15 250 50 0 empty empty empty 17 7 0 10 -262144
-1 -1;
#X obj 195 445 sel 0 1 2 3, f 54;
#X obj 250 528 t b b;
#X msg 274 549 0;
#X msg 787 454 2;
#X obj 643 257 t f f;
#X obj 658 376 sel 1;
#X obj 710 350 bng 15 250 50 0 empty empty empty 17 7 0 10 -262144
-1 -1;
#X obj 344 529 t b b;
#X msg 388 559 0;
#X obj 475 500 t b b b;
#X msg 558 526 1;
#X obj 658 404 t b b b;
#X msg 808 161 Sequencer: Playing;
#X msg 956 161 Sequencer: Stopped;
#X msg 1111 161 Sequencer: Enabled;
#X msg 1265 160 Sequencer: Recording;
#X text 994 36 Controls LED & Screen Infomation:;
#X obj 658 322 del 500;
#X text 203 42 Controls State With Aux Button;
#X obj 960 585 t b b;
#X obj 1023 679 sel 0 1 2 3, f 33;
#X obj 1023 631 delay 100;
#X text 1010 589 Flashes LED at loop & sets color after sequence stop
;
#X msg 1023 706 0;
#X msg 960 629 7;
#X obj 230 65 inlet;
#X msg 964 185 0;
#X obj 979 289 s aux-label-\$1;
#X obj 1151 311 s aux-led-\$1;
#X obj 1032 766 s aux-led-\$1;
#X obj 1008 414 route end rec;
#X obj 1063 447 t b b;
#X msg 1095 482 3;
#X floatatom 1245 713 5 0 0 0 - - -;
#X text 754 362 press and hold;
#X obj 203 382 v seq-\$1-state;
#X obj 190 614 v seq-\$1-state;
#X obj 261 660 s seq-\$1-stop;
#X obj 274 571 v seq-\$1-state;
#X obj 388 581 v seq-\$1-state;
#X obj 356 626 s seq-\$1-stop;
#X obj 499 601 s seq-\$1-start;
#X obj 522 573 s seq-\$1-end_seq;
#X obj 558 548 v seq-\$1-state;
#X obj 1023 655 v seq-\$1-state;
#X obj 1063 556 s seq-\$1-record;
#X obj 1103 504 v seq-\$1-state;
#X obj 658 496 s seq-\$1-recenable;
#X obj 681 469 s seq-\$1-stop;
#X obj 791 476 v seq-\$1-state;
#X obj 991 362 r seq-\$1-status;
#X obj 808 75 r seq-\$1-start;
#X obj 956 78 r seq-\$1-stop;
#X obj 1111 76 r seq-\$1-recenable;
#X obj 1265 75 r seq-\$1-record;
#X msg 1257 194 1;
#X msg 1194 706 1;
#X msg 848 201 2;
#X msg 1080 705 2;
#X msg 1114 187 5;
#X msg 1137 706 5;
#X obj 203 323 sel 1;
#X text 88 215 states are: 0 = stopped \, 1 = playing \, 2 = rec enabled
\, 3 = recording \, 4 = pre-play-from-stop, f 95;
#X text 258 286 the reason for state 4 is so that we can play when
button is released when starting from the stopped state. This way we
can press and hold to record enable without starting the seq.;
#X msg 190 583 4;
#X obj 194 545 t b;
#X obj 92 351 bng 15 250 50 0 empty empty empty 17 7 0 10 -262144 -1
-1;
#X obj 92 384 v seq-\$1-state;
#X obj 92 325 sel 0;
#X obj 89 437 sel 4, f 8;
#X obj 81 538 v seq-\$1-state;
#X msg 81 507 1;
#X obj 44 569 s seq-\$1-start;
#X obj 85 469 t b b;
#X connect 0 0 9 0;
#X connect 1 0 21 0;
#X connect 2 0 65 0;
#X connect 2 0 72 0;
#X connect 3 0 39 0;
#X connect 4 0 69 0;
#X connect 4 1 5 0;
#X connect 4 2 11 0;
#X connect 4 3 13 0;
#X connect 5 0 41 0;
#X connect 5 1 6 0;
#X connect 6 0 42 0;
#X connect 7 0 53 0;
#X connect 8 0 1 0;
#X connect 8 1 0 1;
#X connect 9 0 15 0;
#X connect 11 0 44 0;
#X connect 11 1 12 0;
#X connect 12 0 43 0;
#X connect 13 0 45 0;
#X connect 13 1 46 0;
#X connect 13 2 14 0;
#X connect 14 0 47 0;
#X connect 15 0 51 0;
#X connect 15 1 52 0;
#X connect 15 2 7 0;
#X connect 16 0 31 0;
#X connect 17 0 31 0;
#X connect 18 0 31 0;
#X connect 19 0 31 0;
#X connect 21 0 0 0;
#X connect 21 0 10 0;
#X connect 23 0 28 0;
#X connect 23 1 25 0;
#X connect 24 0 27 0;
#X connect 24 1 62 0;
#X connect 24 2 64 0;
#X connect 24 3 60 0;
#X connect 25 0 48 0;
#X connect 27 0 33 0;
#X connect 28 0 33 0;
#X connect 29 0 2 0;
#X connect 29 0 8 0;
#X connect 30 0 32 0;
#X connect 34 0 23 0;
#X connect 34 1 35 0;
#X connect 35 0 49 0;
#X connect 35 1 36 0;
#X connect 36 0 50 0;
#X connect 37 0 33 0;
#X connect 39 0 4 0;
#X connect 48 0 24 0;
#X connect 54 0 34 0;
#X connect 55 0 16 0;
#X connect 55 0 61 0;
#X connect 56 0 17 0;
#X connect 56 0 30 0;
#X connect 57 0 18 0;
#X connect 57 0 63 0;
#X connect 58 0 19 0;
#X connect 58 0 59 0;
#X connect 59 0 32 0;
#X connect 60 0 33 0;
#X connect 61 0 32 0;
#X connect 62 0 33 0;
#X connect 63 0 32 0;
#X connect 64 0 33 0;
#X connect 65 0 3 0;
#X connect 68 0 40 0;
#X connect 69 0 68 0;
#X connect 70 0 71 0;
#X connect 71 0 73 0;
#X connect 72 0 70 0;
#X connect 73 0 77 0;
#X connect 75 0 74 0;
#X connect 77 0 76 0;
#X connect 77 1 75 0;
#X restore 417 187 pd seq-button-control;
#X obj 803 294 r seq-\$1-stop;
#X obj 924 293 r seq-\$1-start;
#X obj 668 290 r seq-\$1-recenable;
#X obj 666 314 t b;
#X obj 411 98 r seq-but;
#X obj 445 241 r aux-led-\$1;
#X obj 494 298 s led;
#X obj 787 422 s seq-\$1-status;
#X obj 339 782 s oscOut;
#X obj 426 404 s enableKnobs;
#X msg 454 371 1;
#X obj 359 323 t b;
#X obj 454 323 t b;
#X msg 377 359 0;
#X obj 407 288 sel 2;
#X obj 61 653 r knob1;
#X msg 61 713 sendtyped /knob1 i \$1;
#X obj 212 650 r knob2;
#X obj 356 648 r knob3;
#X obj 493 644 r knob4;
#X obj 633 651 r knob5;
#X msg 210 710 sendtyped /knob2 i \$1;
#X msg 356 708 sendtyped /knob3 i \$1;
#X msg 493 704 sendtyped /knob4 i \$1;
#X msg 633 711 sendtyped /knob5 i \$1;
#X msg 217 240 knob1 \$1;
#X obj 217 213 r knob1;
#X obj 216 263 r knob2;
#X obj 215 316 r knob3;
#X obj 212 367 r knob4;
#X obj 223 422 r knob5;
#X msg 217 289 knob2 \$1;
#X msg 216 342 knob3 \$1;
#X msg 213 393 knob4 \$1;
#X msg 224 448 knob5 \$1;
#X obj 122 598 route knob1 knob2 knob3 knob4 knob5;
#X obj 61 681 i;
#X obj 216 677 i;
#X obj 354 678 i;
#X obj 500 674 i;
#X obj 634 679 i;
#X obj 537 563 r ping;
#X msg 899 320 play;
#X obj 787 64 r aux-label-\$1;
#X obj 787 87 print;
#X connect 0 0 45 0;
#X connect 0 1 17 0;
#X connect 1 0 3 0;
#X connect 2 0 1 0;
#X connect 3 0 0 0;
#X connect 3 0 0 1;
#X connect 4 0 0 3;
#X connect 5 0 0 3;
#X connect 10 0 4 0;
#X connect 11 0 52 0;
#X connect 12 0 13 0;
#X connect 13 0 5 0;
#X connect 14 0 9 0;
#X connect 15 0 16 0;
#X connect 15 0 24 0;
#X connect 20 0 19 0;
#X connect 21 0 23 0;
#X connect 22 0 20 0;
#X connect 23 0 19 0;
#X connect 24 0 21 0;
#X connect 24 1 22 0;
#X connect 25 0 46 0;
#X connect 26 0 18 0;
#X connect 27 0 47 0;
#X connect 28 0 48 0;
#X connect 29 0 49 0;
#X connect 30 0 50 0;
#X connect 31 0 18 0;
#X connect 32 0 18 0;
#X connect 33 0 18 0;
#X connect 34 0 18 0;
#X connect 35 0 0 2;
#X connect 36 0 35 0;
#X connect 37 0 41 0;
#X connect 38 0 42 0;
#X connect 39 0 43 0;
#X connect 40 0 44 0;
#X connect 41 0 0 2;
#X connect 42 0 0 2;
#X connect 43 0 0 2;
#X connect 44 0 0 2;
#X connect 45 0 46 0;
#X connect 45 1 47 0;
#X connect 45 2 48 0;
#X connect 45 3 49 0;
#X connect 45 4 50 0;
#X connect 46 0 26 0;
#X connect 47 0 31 0;
#X connect 48 0 32 0;
#X connect 49 0 33 0;
#X connect 50 0 34 0;
#X connect 51 0 50 0;
#X connect 51 0 49 0;
#X connect 51 0 48 0;
#X connect 51 0 47 0;
#X connect 51 0 46 0;
#X connect 52 0 0 3;
#X connect 53 0 54 0;
#X restore 714 201 pd knob-sequencer;
#X obj 198 122 tgl 15 0 empty empty empty 17 7 0 10 -262144 -1 -1 0
1;
#X connect 0 0 44 0;
#X connect 1 0 2 0;
#X connect 2 0 0 0;
#X connect 3 0 45 0;
#X connect 4 0 2 0;
#X connect 5 0 4 0;
#X connect 5 0 47 0;
#X connect 6 0 31 0;
#X connect 7 0 8 0;
#X connect 8 0 9 0;
#X connect 12 0 11 0;
#X connect 13 0 12 0;
#X connect 18 0 19 0;
#X connect 19 0 20 0;
#X connect 20 0 21 0;
#X connect 21 0 22 0;
#X connect 23 0 28 0;
#X connect 24 0 25 0;
#X connect 27 0 22 0;
#X connect 28 0 27 0;
#X connect 30 0 29 0;
#X connect 31 0 52 0;
#X connect 31 1 13 0;
#X connect 31 2 50 0;
#X connect 31 3 33 0;
#X connect 35 0 34 0;
#X connect 38 0 39 0;
#X connect 39 0 22 0;
#X connect 40 0 38 0;
#X connect 42 0 43 0;
#X connect 45 0 1 0;
#X connect 46 0 45 1;
#X connect 47 0 48 0;
#X connect 49 0 19 0;
#X connect 49 0 28 0;
#X connect 49 0 38 0;
#X connect 50 0 26 0;
#X connect 52 0 5 0;
