#N canvas 81 50 1123 660 10;
#X obj 122 292 tgl 15 0 empty empty empty 17 7 0 10 -262144 -1 -1 0
1;
#X obj 122 220 packOSC;
#X obj 122 256 udpsend;
#X obj 109 174 r oscOut;
#X msg 193 218 connect localhost 4000;
#X obj 192 174 metro 1000;
#X obj 270 55 loadbang;
#X obj 270 77 t b b;
#X obj 108 87 udpreceive 4001;
#X obj 108 109 unpackOSC;
#X obj 107 135 s oscIn;
#N canvas 6 50 507 353 led 0;
#X obj 182 292 rpi_gpio 22 0 1;
#X obj 63 293 rpi_gpio 23 0 1;
#X obj 299 294 rpi_gpio 24 0 1;
#X obj 180 50 routeOSC /led;
#X obj 181 77 % 8;
#X obj 182 110 t f f f;
#X obj 182 132 int;
#X obj 202 160 int;
#X obj 227 130 int;
#X obj 235 204 & 1;
#X obj 198 207 & 1;
#X obj 156 207 & 1;
#X obj 198 185 >> 1;
#X obj 156 185 >> 0;
#X obj 235 182 >> 2;
#X obj 185 24 r oscIn;
#X obj 147 235 == 0;
#X obj 196 232 == 0;
#X obj 245 232 == 0;
#X connect 3 0 4 0;
#X connect 4 0 5 0;
#X connect 5 0 6 0;
#X connect 5 1 7 0;
#X connect 5 2 8 0;
#X connect 6 0 13 0;
#X connect 7 0 12 0;
#X connect 8 0 14 0;
#X connect 9 0 18 0;
#X connect 10 0 17 0;
#X connect 11 0 16 0;
#X connect 12 0 10 0;
#X connect 13 0 11 0;
#X connect 14 0 9 0;
#X connect 15 0 3 0;
#X connect 16 0 1 0;
#X connect 17 0 0 0;
#X connect 18 0 2 0;
#X restore 441 120 pd led;
#X text 147 293 connected;
#X obj 307 173 shell;
#X msg 307 145 ./pd_loaded.sh;
#X obj 307 119 delay 100;
#N canvas 66 91 639 424 midi 0;
#X obj 60 40 notein;
#X text 60 16 MIDI IN;
#X obj 329 38 ctlin;
#X obj 29 137 pack 0 0;
#X msg 29 227 sendtyped /midinote ii \$1 \$2;
#X obj 336 142 pack 0 0;
#X msg 336 222 sendtyped /midicc ii \$1 \$2;
#X obj 141 350 s oscOut;
#X obj 499 52 r midiCh;
#X obj 449 98 i 1;
#X obj 419 143 ==;
#X obj 399 74 t f b;
#X obj 351 180 spigot;
#X obj 42 183 spigot;
#X obj 222 57 r midiCh;
#X obj 172 103 i 1;
#X obj 142 148 ==;
#X obj 122 79 t f b;
#X connect 0 0 3 0;
#X connect 0 1 3 1;
#X connect 0 2 17 0;
#X connect 2 0 5 0;
#X connect 2 1 5 1;
#X connect 2 2 11 0;
#X connect 3 0 13 0;
#X connect 4 0 7 0;
#X connect 5 0 12 0;
#X connect 6 0 7 0;
#X connect 8 0 9 1;
#X connect 9 0 10 1;
#X connect 10 0 12 1;
#X connect 11 0 10 0;
#X connect 11 1 9 0;
#X connect 12 0 6 0;
#X connect 13 0 4 0;
#X connect 14 0 15 1;
#X connect 15 0 16 1;
#X connect 16 0 13 1;
#X connect 17 0 16 0;
#X connect 17 1 15 0;
#X restore 440 144 pd midi;
#N canvas 70 50 1168 585 shift-params 1;
#X obj 272 1 r shiftKey;
#X obj 375 106 == 0;
#X obj 401 141 s enableKnobs;
#X obj 205 332 spigot 0;
#X obj 198 415 i;
#X obj 566 423 i;
#X obj 566 377 * 16;
#X obj 566 399 + 1;
#X obj 566 353 / 1024;
#X obj 394 428 i;
#X obj 394 404 + 1;
#X obj 394 358 / 1024;
#X obj 394 382 * 5;
#X floatatom 582 457 5 0 0 0 - - -, f 5;
#X floatatom 421 459 5 0 0 0 - - -, f 5;
#X floatatom 213 446 5 0 0 0 - - -, f 5;
#X obj 882 395 textfile;
#X msg 1054 242 clear;
#X msg 833 259 add midiCh \$1;
#X msg 874 292 add trigSource \$1;
#X msg 905 321 add inputGain \$1;
#X obj 197 508 s inputGain;
#X obj 385 501 s trigSource;
#X obj 570 504 s midiCh;
#X obj 860 166 r midiCh;
#X obj 908 188 r trigSource;
#X obj 972 207 r inputGain;
#X obj 941 236 i 100;
#X obj 889 226 i 0;
#X obj 846 214 i 1;
#X obj 893 130 t b b b b;
#X obj 828 54 bng 15 250 50 0 empty empty empty 17 7 0 10 -262144 -1
-1;
#X obj 194 282 r knob1;
#X obj 388 330 spigot 0;
#X obj 555 320 spigot 0;
#X obj 379 290 r knob2;
#X obj 557 291 r knob3;
#N canvas 8 50 1188 455 shift-display 0;
#X msg 79 153 sendtyped /shift i \$1;
#X obj 387 421 s oscOut;
#X msg 268 159 send /sline 0 Input Gain \$1 %;
#X msg 909 292 send /sline 2 MIDI Channel \$1;
#X obj 502 169 sel 1 2 3 4;
#X msg 502 221 send /sline 1 Trigger Source LINK;
#X msg 523 241 send /sline 1 Trigger Source MIDI Clock;
#X msg 548 263 send /sline 1 Trigger Source MIDI Notes;
#X msg 481 200 send /sline 1 Trigger Source Audio;
#X msg 577 285 send /sline 1 Trigger Source All;
#X obj 239 76 r inputGain;
#X obj 451 67 r trigSource;
#X obj 858 66 r midiCh;
#X obj 77 48 inlet;
#X text 108 121 enable overlay;
#X connect 0 0 1 0;
#X connect 2 0 1 0;
#X connect 3 0 1 0;
#X connect 4 0 8 0;
#X connect 4 1 5 0;
#X connect 4 2 6 0;
#X connect 4 3 7 0;
#X connect 4 4 9 0;
#X connect 5 0 1 0;
#X connect 6 0 1 0;
#X connect 7 0 1 0;
#X connect 8 0 1 0;
#X connect 9 0 1 0;
#X connect 10 0 2 0;
#X connect 11 0 4 0;
#X connect 12 0 3 0;
#X connect 13 0 0 0;
#X restore 68 168 pd shift-display;
#X obj 212 166 s enableShift;
#X obj 281 93 == 1;
#X obj 273 260 r enableShift;
#X obj 458 268 r enableShift;
#X obj 637 284 r enableShift;
#X obj 271 62 t f f f;
#X obj 282 119 t f f;
#X obj 330 156 sel 1 0;
#X obj 420 209 s saveShiftParams;
#X obj 253 213 s recallShiftParams;
#X obj 739 28 r saveShiftParams;
#X obj 827 76 t b b;
#X msg 617 129 write /sdcard/System/shift-params.txt;
#X obj 1036 286 bng 15 250 50 0 empty empty empty 17 7 0 10 -262144
-1 -1;
#X obj 855 428 route inputGain trigSource midiCh;
#X floatatom 850 456 5 0 0 0 - - -, f 5;
#X floatatom 927 454 5 0 0 0 - - -, f 5;
#X floatatom 1008 453 5 0 0 0 - - -, f 5;
#X obj 1075 281 r recallShiftParams;
#X obj 811 494 s inputGain;
#X obj 902 492 s trigSource;
#X obj 1007 492 s midiCh;
#X msg 1087 361 read /sdcard/System/shift-params.txt;
#X obj 1048 322 t b b b b b;
#X msg 1027 360 rewind;
#X obj 266 30 change 0;
#X text 338 34 ignore first 0;
#X obj 198 369 / 1023;
#X obj 198 393 * 301;
#X connect 0 0 63 0;
#X connect 1 0 2 0;
#X connect 3 0 65 0;
#X connect 4 0 15 0;
#X connect 4 0 21 0;
#X connect 5 0 13 0;
#X connect 5 0 23 0;
#X connect 6 0 7 0;
#X connect 7 0 5 0;
#X connect 8 0 6 0;
#X connect 9 0 14 0;
#X connect 9 0 22 0;
#X connect 10 0 9 0;
#X connect 11 0 12 0;
#X connect 12 0 10 0;
#X connect 16 0 52 0;
#X connect 17 0 16 0;
#X connect 18 0 16 0;
#X connect 19 0 16 0;
#X connect 20 0 16 0;
#X connect 24 0 29 1;
#X connect 25 0 28 1;
#X connect 26 0 27 1;
#X connect 27 0 20 0;
#X connect 28 0 19 0;
#X connect 29 0 18 0;
#X connect 30 0 29 0;
#X connect 30 1 28 0;
#X connect 30 2 27 0;
#X connect 30 3 17 0;
#X connect 31 0 49 0;
#X connect 32 0 3 0;
#X connect 33 0 11 0;
#X connect 34 0 8 0;
#X connect 35 0 33 0;
#X connect 36 0 34 0;
#X connect 39 0 44 0;
#X connect 40 0 3 1;
#X connect 41 0 33 1;
#X connect 42 0 34 1;
#X connect 43 0 37 0;
#X connect 43 1 39 0;
#X connect 43 2 1 0;
#X connect 44 0 38 0;
#X connect 44 1 45 0;
#X connect 45 0 47 0;
#X connect 45 1 46 0;
#X connect 48 0 49 0;
#X connect 49 0 50 0;
#X connect 49 1 30 0;
#X connect 50 0 16 0;
#X connect 51 0 61 0;
#X connect 52 0 53 0;
#X connect 52 1 54 0;
#X connect 52 2 55 0;
#X connect 53 0 57 0;
#X connect 54 0 58 0;
#X connect 55 0 59 0;
#X connect 56 0 61 0;
#X connect 60 0 16 0;
#X connect 61 0 16 0;
#X connect 61 1 16 0;
#X connect 61 2 16 0;
#X connect 61 3 62 0;
#X connect 61 4 60 0;
#X connect 62 0 16 0;
#X connect 63 0 43 0;
#X connect 65 0 66 0;
#X connect 66 0 4 0;
#X restore 441 170 pd shift-params;
#N canvas 87 51 1189 600 knobs-and-keys 0;
#X obj 626 186 pack;
#X text 829 132 pins are SR LOAD \, CLOCK and DATA 4th argument is
number bits to shift, f 27;
#X obj 100 29 rpi_gpio_mcp3008, f 36;
#X floatatom 340 75 5 0 0 0 - - -, f 5;
#X floatatom 267 72 5 0 0 0 - - -, f 5;
#X floatatom 196 74 5 0 0 0 - - -, f 5;
#X floatatom 123 74 5 0 0 0 - - -, f 5;
#X floatatom 81 74 5 0 0 0 - - -, f 5;
#X obj 91 -4 metro 50;
#X obj 48 209 pack 0 0 0 0 0;
#X obj 67 523 s oscOut;
#X msg 67 421 sendtyped /knobs iiiiii \$1 \$2 \$3 \$4 \$5 0;
#X obj 373 408 s oscOut;
#X obj 617 144 rpi_gpio_shiftin 34 32 33 16;
#X obj 872 299 change -1;
#X obj 872 348 tgl 15 0 empty empty empty 17 7 0 10 -262144 -1 -1 0
1;
#X obj 943 303 change -1;
#X obj 943 352 tgl 15 0 empty empty empty 17 7 0 10 -262144 -1 -1 0
1;
#X obj 1015 299 change -1;
#X obj 1015 348 tgl 15 0 empty empty empty 17 7 0 10 -262144 -1 -1
0 1;
#X obj 800 297 change -1;
#X obj 800 346 tgl 15 0 empty empty empty 17 7 0 10 -262144 -1 -1 0
1;
#X obj 731 298 change -1;
#X obj 731 347 tgl 15 0 empty empty empty 17 7 0 10 -262144 -1 -1 0
1;
#X obj 658 298 change -1;
#X obj 658 347 tgl 15 0 empty empty empty 17 7 0 10 -262144 -1 -1 0
1;
#X obj 1015 323 == 0;
#X obj 943 327 == 0;
#X obj 872 323 == 0;
#X obj 800 321 == 0;
#X obj 731 322 == 0;
#X obj 658 322 == 0;
#X obj 588 298 change -1;
#X obj 588 374 tgl 15 0 empty empty empty 17 7 0 10 -262144 -1 -1 0
1;
#X obj 589 344 == 0;
#X obj 517 300 change -1;
#X obj 517 349 tgl 15 0 empty empty empty 17 7 0 10 -262144 -1 -1 0
1;
#X obj 517 324 == 0;
#X obj 445 300 change -1;
#X obj 445 349 tgl 15 0 empty empty empty 17 7 0 10 -262144 -1 -1 0
1;
#X obj 445 324 == 0;
#X obj 373 298 change -1;
#X obj 373 347 tgl 15 0 empty empty empty 17 7 0 10 -262144 -1 -1 0
1;
#X obj 373 322 == 0;
#X obj 445 436 s oscOut;
#X obj 516 472 s oscOut;
#X obj 590 512 s oscOut;
#X obj 656 407 s oscOut;
#X obj 727 435 s oscOut;
#X obj 797 471 s oscOut;
#X obj 876 506 s oscOut;
#X obj 1018 449 s oscOut;
#X msg 590 487 sendtyped /key ii 4 \$1;
#X msg 445 411 sendtyped /key ii 6 \$1;
#X obj 683 82 rpi_gpio 35 0 1;
#X msg 682 56 0;
#X text 752 59 have to pull clock en low;
#X msg 876 481 sendtyped /key ii 1 \$1;
#X msg 1018 424 sendtyped /key ii 3 \$1;
#X msg 727 410 sendtyped /key ii 5 \$1;
#X msg 797 446 sendtyped /key ii 7 \$1;
#X msg 656 382 sendtyped /key ii 8 \$1;
#X msg 516 447 sendtyped /key ii 9 \$1;
#X msg 373 383 sendtyped /key ii 10 \$1;
#X obj 576 255 route 0 1 2 3 4 5 6 7 8 9 10 11 12 13 14 15;
#X obj 467 -56 t b b b;
#X obj 604 110 metro 5;
#X obj 72 481 spigot 1;
#X obj 126 453 r enableKnobs;
#X obj 936 406 s shiftKey;
#X obj 72 371 t a a;
#X obj 109 398 s knobs;
#X obj 467 -78 loadbang;
#X obj 340 98 smooth;
#X obj 340 121 change -1;
#X obj 340 147 s knob1;
#X obj 267 98 smooth;
#X obj 267 121 change -1;
#X obj 267 147 s knob5;
#X obj 196 97 smooth;
#X obj 196 120 change -1;
#X obj 196 146 s knob2;
#X obj 47 100 smooth;
#X obj 47 123 change -1;
#X obj 47 149 s knob3;
#X obj 122 98 smooth;
#X obj 122 121 change -1;
#X obj 122 147 s knob4;
#X text 402 148 knob vals used in pd;
#X text 163 211 stream raw vals to video engine;
#X connect 0 0 64 0;
#X connect 2 0 7 0;
#X connect 2 1 6 0;
#X connect 2 2 5 0;
#X connect 2 3 4 0;
#X connect 2 4 3 0;
#X connect 3 0 73 0;
#X connect 3 0 9 0;
#X connect 4 0 76 0;
#X connect 4 0 9 4;
#X connect 5 0 79 0;
#X connect 5 0 9 1;
#X connect 6 0 85 0;
#X connect 6 0 9 3;
#X connect 7 0 82 0;
#X connect 7 0 9 2;
#X connect 8 0 2 0;
#X connect 9 0 70 0;
#X connect 11 0 67 0;
#X connect 13 0 0 0;
#X connect 13 1 0 1;
#X connect 14 0 28 0;
#X connect 15 0 57 0;
#X connect 16 0 27 0;
#X connect 17 0 69 0;
#X connect 18 0 26 0;
#X connect 19 0 58 0;
#X connect 20 0 29 0;
#X connect 21 0 60 0;
#X connect 22 0 30 0;
#X connect 23 0 59 0;
#X connect 24 0 31 0;
#X connect 25 0 61 0;
#X connect 26 0 19 0;
#X connect 27 0 17 0;
#X connect 28 0 15 0;
#X connect 29 0 21 0;
#X connect 30 0 23 0;
#X connect 31 0 25 0;
#X connect 32 0 34 0;
#X connect 33 0 52 0;
#X connect 34 0 33 0;
#X connect 35 0 37 0;
#X connect 36 0 62 0;
#X connect 37 0 36 0;
#X connect 38 0 40 0;
#X connect 39 0 53 0;
#X connect 40 0 39 0;
#X connect 41 0 43 0;
#X connect 42 0 63 0;
#X connect 43 0 42 0;
#X connect 52 0 46 0;
#X connect 53 0 44 0;
#X connect 55 0 54 0;
#X connect 57 0 50 0;
#X connect 58 0 51 0;
#X connect 59 0 48 0;
#X connect 60 0 49 0;
#X connect 61 0 47 0;
#X connect 62 0 45 0;
#X connect 63 0 12 0;
#X connect 64 0 41 0;
#X connect 64 1 38 0;
#X connect 64 2 35 0;
#X connect 64 3 32 0;
#X connect 64 4 24 0;
#X connect 64 5 22 0;
#X connect 64 6 20 0;
#X connect 64 7 14 0;
#X connect 64 14 16 0;
#X connect 64 15 18 0;
#X connect 65 0 8 0;
#X connect 65 1 66 0;
#X connect 65 2 55 0;
#X connect 66 0 13 0;
#X connect 67 0 10 0;
#X connect 68 0 67 1;
#X connect 70 0 11 0;
#X connect 70 1 71 0;
#X connect 72 0 65 0;
#X connect 73 0 74 0;
#X connect 74 0 75 0;
#X connect 76 0 77 0;
#X connect 77 0 78 0;
#X connect 79 0 80 0;
#X connect 80 0 81 0;
#X connect 82 0 83 0;
#X connect 83 0 84 0;
#X connect 85 0 86 0;
#X connect 86 0 87 0;
#X restore 442 90 pd knobs-and-keys;
#N canvas 13 50 614 316 wifi 0;
#N canvas 4 50 450 300 once 0;
#X obj 67 30 inlet;
#X obj 67 52 spigot 1;
#X obj 67 74 t a b;
#X obj 67 96 outlet;
#X msg 149 64 0;
#X connect 0 0 1 0;
#X connect 1 0 2 0;
#X connect 2 0 3 0;
#X connect 2 1 4 0;
#X connect 4 0 1 1;
#X restore 177 103 pd once;
#X obj 177 133 sel 0 1;
#X obj 77 243 shell;
#X obj 332 225 shell;
#N canvas 4 50 450 300 once 0;
#X obj 67 30 inlet;
#X obj 67 52 spigot 1;
#X obj 67 74 t a b;
#X obj 67 96 outlet;
#X msg 149 64 0;
#X connect 0 0 1 0;
#X connect 1 0 2 0;
#X connect 2 0 3 0;
#X connect 2 1 4 0;
#X connect 4 0 1 1;
#X restore 110 273 pd once;
#X msg 77 185 sudo systemctl start wpa_supplicant;
#X msg 134 214 sudo systemctl start dhcpcd;
#X msg 332 186 sudo systemctl start createap;
#X obj 177 68 r shiftKey;
#X msg 361 136 sudo systemctl stop createap;
#X connect 0 0 1 0;
#X connect 1 0 5 0;
#X connect 1 1 7 0;
#X connect 2 1 4 0;
#X connect 4 0 6 0;
#X connect 5 0 2 0;
#X connect 6 0 2 0;
#X connect 7 0 3 0;
#X connect 8 0 0 0;
#X connect 9 0 3 0;
#X restore 440 195 pd wifi;
#X obj 611 272 r inputGain;
#X obj 606 302 f;
#X obj 604 336 / 100;
#X msg 564 374 sendtyped /ascale f \$1;
#X obj 575 411 s oscOut;
#X connect 1 0 2 0;
#X connect 2 0 0 0;
#X connect 3 0 1 0;
#X connect 4 0 2 0;
#X connect 5 0 4 0;
#X connect 5 0 21 0;
#X connect 6 0 7 0;
#X connect 7 0 5 0;
#X connect 7 1 15 0;
#X connect 8 0 9 0;
#X connect 9 0 10 0;
#X connect 14 0 13 0;
#X connect 15 0 14 0;
#X connect 20 0 21 0;
#X connect 21 0 22 0;
#X connect 22 0 23 0;
#X connect 23 0 24 0;
