#N canvas 156 53 1391 745 10;
#X obj 44 370 tgl 15 0 empty empty empty 17 7 0 10 -262144 -1 -1 0
1;
#X obj 44 278 packOSC;
#X obj 44 334 udpsend;
#X obj 44 182 r oscOut;
#X obj 208 150 metro 1000;
#X obj 208 18 loadbang;
#X obj 35 86 unpackOSC;
#X obj 35 121 s oscIn;
#X text 63 369 connected;
#X obj 323 205 shell;
#N canvas 445 353 1040 523 midi 0;
#X obj 60 40 notein;
#X text 60 16 MIDI IN;
#X obj 329 38 ctlin;
#X obj 29 137 pack 0 0;
#X msg 25 274 sendtyped /midinote ii \$1 \$2;
#X obj 336 142 pack 0 0;
#X msg 336 222 sendtyped /midicc ii \$1 \$2;
#X obj 333 389 s oscOut;
#X obj 499 52 r midiCh;
#X obj 449 98 i 1;
#X obj 419 143 ==;
#X obj 399 74 t f b;
#X obj 351 180 spigot;
#X obj 222 57 r midiCh;
#X obj 172 103 i 1;
#X obj 142 148 ==;
#X obj 122 79 t f b;
#X obj 73 234 s midiNoteIn;
#X obj 808 56 r midiCh;
#X obj 758 102 i 1;
#X obj 728 147 ==;
#X obj 708 78 t f b;
#X obj 660 184 spigot;
#X obj 638 42 pgmin;
#X msg 630 226 sendtyped /midipgm i \$1;
#X obj 42 183 spigot 0;
#X connect 0 0 3 0;
#X connect 0 1 3 1;
#X connect 0 2 16 0;
#X connect 2 0 5 0;
#X connect 2 1 5 1;
#X connect 2 2 11 0;
#X connect 3 0 25 0;
#X connect 4 0 7 0;
#X connect 5 0 12 0;
#X connect 6 0 7 0;
#X connect 8 0 9 1;
#X connect 9 0 10 1;
#X connect 10 0 12 1;
#X connect 11 0 10 0;
#X connect 11 1 9 0;
#X connect 12 0 6 0;
#X connect 13 0 14 1;
#X connect 14 0 15 1;
#X connect 15 0 25 1;
#X connect 16 0 15 0;
#X connect 16 1 14 0;
#X connect 18 0 19 1;
#X connect 19 0 20 1;
#X connect 20 0 22 1;
#X connect 21 0 20 0;
#X connect 21 1 19 0;
#X connect 22 0 24 0;
#X connect 23 0 22 0;
#X connect 23 1 21 0;
#X connect 24 0 7 0;
#X connect 25 0 4 0;
#X connect 25 0 17 0;
#X restore 714 97 pd midi;
#N canvas 87 58 1499 839 knobs-and-keys 0;
#X obj 578 263 pack;
#X text 829 242 pins are SR LOAD \, CLOCK and DATA 4th argument is
number bits to shift, f 27;
#X obj 276 556 s oscOut;
#X obj 569 221 rpi_gpio_shiftin 34 32 33 16;
#X obj 872 409 change -1;
#X obj 943 413 change -1;
#X obj 943 462 tgl 15 0 empty empty empty 17 7 0 10 -262144 -1 -1 0
1;
#X obj 1178 427 change -1;
#X obj 800 407 change -1;
#X obj 800 456 tgl 15 0 empty empty empty 17 7 0 10 -262144 -1 -1 0
1;
#X obj 731 408 change -1;
#X obj 731 457 tgl 15 0 empty empty empty 17 7 0 10 -262144 -1 -1 0
1;
#X obj 658 408 change -1;
#X obj 658 457 tgl 15 0 empty empty empty 17 7 0 10 -262144 -1 -1 0
1;
#X obj 1178 451 == 0;
#X obj 943 437 == 0;
#X obj 872 433 == 0;
#X obj 800 431 == 0;
#X obj 731 432 == 0;
#X obj 658 432 == 0;
#X obj 588 408 change -1;
#X obj 588 484 tgl 15 0 empty empty empty 17 7 0 10 -262144 -1 -1 0
1;
#X obj 589 454 == 0;
#X obj 517 410 change -1;
#X obj 517 459 tgl 15 0 empty empty empty 17 7 0 10 -262144 -1 -1 0
1;
#X obj 517 434 == 0;
#X obj 445 410 change -1;
#X obj 445 459 tgl 15 0 empty empty empty 17 7 0 10 -262144 -1 -1 0
1;
#X obj 445 434 == 0;
#X obj 373 408 change -1;
#X obj 373 457 tgl 15 0 empty empty empty 17 7 0 10 -262144 -1 -1 0
1;
#X obj 373 432 == 0;
#X obj 516 582 s oscOut;
#X obj 244 773 s oscOut;
#X obj 708 696 s oscOut;
#X obj 758 551 s oscOut;
#X obj 923 708 s oscOut;
#X obj 1181 577 s oscOut;
#X obj 667 164 rpi_gpio 35 0 1;
#X msg 667 137 0;
#X text 736 141 have to pull clock en low;
#X msg 923 683 sendtyped /key ii 1 \$1;
#X msg 1181 552 sendtyped /key ii 3 \$1;
#X msg 708 671 sendtyped /key ii 8 \$1;
#X msg 516 557 sendtyped /key ii 9 \$1;
#X msg 276 531 sendtyped /key ii 10 \$1;
#X obj 528 332 route 0 1 2 3 4 5 6 7 8 9 10 11 12 13 14 15, f 66;
#X obj 471 79 t b b b;
#X obj 943 516 s shiftKey;
#X obj 467 32 loadbang;
#X text 402 258 knob vals used in pd;
#X obj 556 187 metro 8;
#X obj 471 56 delay 110;
#X obj 529 136 delay 10;
#X obj 1212 520 s seq-but;
#X obj 1178 474 t a a;
#X obj 1111 88 ctlin, f 15;
#X obj 1111 192 pack 0 0;
#X obj 1240 119 r midiCh;
#X obj 1225 151 i 1;
#X obj 1198 193 ==;
#X obj 1198 124 t f b;
#X obj 1111 230 spigot;
#X obj 1111 253 route 21 22 23 24 25, f 53;
#X obj 1111 276 / 127;
#X obj 1111 299 * 1023;
#X obj 1111 322 s knob1;
#X obj 1174 277 / 127;
#X obj 1174 300 * 1023;
#X obj 1235 276 / 127;
#X obj 1235 299 * 1023;
#X obj 1300 276 / 127;
#X obj 1300 299 * 1023;
#X obj 1361 276 / 127;
#X obj 1361 299 * 1023;
#X obj 1174 323 s knob2;
#X obj 1235 322 s knob3;
#X obj 1299 322 s knob4;
#X obj 1361 322 s knob5;
#X obj 168 113 loadbang;
#X obj 168 136 del 120;
#X obj 169 158 t b b;
#X obj 206 211 s shiftKey;
#X obj 201 184 0;
#N canvas 295 121 1030 836 knobs 0;
#X obj 36 20 inlet;
#X text 84 18 start metro;
#X obj 36 85 rpi_gpio_mcp3008, f 157;
#X obj 36 52 metro 50;
#X obj 823 186 smooth;
#X obj 823 209 change -1;
#X obj 881 331 s knob1;
#X obj 451 129 smooth;
#X obj 451 152 change -1;
#X obj 466 190 s knob5;
#X obj 460 271 smooth;
#X obj 460 294 change -1;
#X obj 36 166 smooth;
#X obj 36 209 change -1;
#X obj 167 129 smooth;
#X obj 167 152 change -1;
#X obj 196 209 s knob4;
#X obj 899 226 r shiftKey;
#X obj 823 243 t a a;
#X obj 899 250 t a a;
#X obj 926 276 == 0;
#X obj 823 302 overTake;
#X obj 881 304 overTake;
#X obj 850 371 s inputGain;
#X obj 711 193 r gainRecall;
#X obj 711 216 list prepend set;
#X obj 711 239 list trim;
#X obj 460 339 t a a;
#X obj 535 346 t a a;
#X obj 562 372 == 0;
#X obj 460 398 overTake;
#X obj 517 400 overTake;
#X obj 347 312 list prepend set;
#X obj 347 335 list trim;
#X obj 517 427 s knob2;
#X obj 347 289 r trigRecall;
#X obj 535 256 r shiftKey;
#X obj 487 465 s trigSource;
#X obj 109 411 t a a;
#X obj 185 418 t a a;
#X obj 212 444 == 0;
#X obj 109 470 overTake;
#X obj 167 472 overTake;
#X obj 47 344 list prepend set;
#X obj 47 367 list trim;
#X obj 167 499 s knob3;
#X obj 136 526 s midiChPre;
#X obj 47 321 r midiChRecall;
#X obj 109 493 t b a;
#X obj 460 433 t b a;
#X obj 823 339 t b a;
#X obj 608 256 r osdStateUp;
#X obj 608 279 t b a;
#X obj 535 319 &&, f 8;
#X obj 185 290 r shiftKey;
#X obj 258 290 r osdStateUp;
#X obj 258 313 t b a;
#X obj 185 353 &&, f 8;
#X obj 246 528 s still-locked;
#X obj 577 437 s still-locked;
#X obj 909 400 s still-locked;
#X obj 522 597 r still-locked;
#X obj 522 620 t b;
#X obj 522 647 1;
#X obj 522 670 makenote 1 45;
#X obj 597 704 s still-loc-led;
#X obj 629 311 r krecall-2;
#X obj 629 339 list prepend set;
#X obj 629 362 list trim;
#X obj 904 151 list prepend set;
#X obj 904 174 list trim;
#X obj 255 169 r krecall-4;
#X obj 526 161 r krecall-5;
#X obj 256 401 list prepend set;
#X obj 256 424 list trim;
#X obj 256 371 r krecall-3;
#X obj 904 123 r krecall-1;
#X connect 0 0 3 0;
#X connect 2 0 12 0;
#X connect 2 1 14 0;
#X connect 2 2 10 0;
#X connect 2 3 7 0;
#X connect 2 4 4 0;
#X connect 3 0 2 0;
#X connect 4 0 5 0;
#X connect 5 0 18 0;
#X connect 7 0 8 0;
#X connect 8 0 9 0;
#X connect 10 0 11 0;
#X connect 11 0 27 0;
#X connect 12 0 13 0;
#X connect 13 0 38 0;
#X connect 14 0 15 0;
#X connect 15 0 16 0;
#X connect 17 0 19 0;
#X connect 18 0 21 0;
#X connect 18 1 22 0;
#X connect 19 0 21 1;
#X connect 19 1 20 0;
#X connect 20 0 22 1;
#X connect 21 0 50 0;
#X connect 21 1 60 0;
#X connect 22 0 6 0;
#X connect 22 1 60 0;
#X connect 24 0 25 0;
#X connect 25 0 26 0;
#X connect 26 0 21 0;
#X connect 27 0 30 0;
#X connect 27 1 31 0;
#X connect 28 0 30 1;
#X connect 28 1 29 0;
#X connect 29 0 31 1;
#X connect 30 0 49 0;
#X connect 30 1 59 0;
#X connect 31 0 34 0;
#X connect 31 1 59 0;
#X connect 32 0 33 0;
#X connect 33 0 30 0;
#X connect 35 0 32 0;
#X connect 36 0 53 0;
#X connect 38 0 41 0;
#X connect 38 1 42 0;
#X connect 39 0 41 1;
#X connect 39 1 40 0;
#X connect 40 0 42 1;
#X connect 41 0 48 0;
#X connect 41 1 58 0;
#X connect 42 0 45 0;
#X connect 42 1 58 0;
#X connect 43 0 44 0;
#X connect 44 0 41 0;
#X connect 47 0 43 0;
#X connect 48 1 46 0;
#X connect 49 1 37 0;
#X connect 50 1 23 0;
#X connect 51 0 52 0;
#X connect 52 0 53 0;
#X connect 52 1 53 1;
#X connect 53 0 28 0;
#X connect 54 0 57 0;
#X connect 55 0 56 0;
#X connect 56 0 57 0;
#X connect 56 1 57 1;
#X connect 57 0 39 0;
#X connect 61 0 62 0;
#X connect 62 0 63 0;
#X connect 63 0 64 0;
#X connect 64 1 65 0;
#X connect 66 0 67 0;
#X connect 67 0 68 0;
#X connect 68 0 31 0;
#X connect 69 0 70 0;
#X connect 70 0 22 0;
#X connect 71 0 16 0;
#X connect 72 0 9 0;
#X connect 73 0 74 0;
#X connect 74 0 42 0;
#X connect 75 0 73 0;
#X connect 76 0 69 0;
#X restore 361 227 pd knobs;
#X obj 872 782 s osdStateUp;
#X obj 370 500 s trigLocal;
#X obj 982 602 s oscOut;
#X msg 982 577 sendtyped /key ii 15 \$1;
#X obj 872 480 sel 1;
#X obj 909 589 + 1;
#X obj 909 612 == 1;
#X obj 1025 516 s saveShiftParams;
#X obj 943 482 t a a a;
#X obj 1025 487 sel 0;
#X obj 872 643 t a a, f 9;
#X obj 872 592 f 1;
#X obj 409 710 s scene-down;
#X obj 511 710 s scene-up;
#X obj 616 672 s write-scene;
#X obj 409 679 sel 1;
#X obj 511 677 sel 1;
#X text 1109 42 cc 0-127 knobs;
#X msg 267 744 sendtyped /modeDown i \$1;
#X msg 758 526 sendtyped /modeUp i \$1;
#X obj 722 627 s mode-change!;
#X obj 722 599 sel 1, f 7;
#X obj 637 771 s oscOut;
#X msg 637 746 sendtyped /key ii 50 \$1;
#X obj 517 643 t a a;
#X obj 478 772 s oscOut;
#X obj 408 644 t a a;
#X msg 478 747 sendtyped /key ii 49 \$1;
#X obj 731 500 t a a;
#X obj 588 504 t a a;
#X obj 652 642 t a a;
#X connect 0 0 46 0;
#X connect 3 0 0 0;
#X connect 3 1 0 1;
#X connect 4 0 16 0;
#X connect 5 0 15 0;
#X connect 6 0 93 0;
#X connect 7 0 14 0;
#X connect 8 0 17 0;
#X connect 9 0 109 0;
#X connect 10 0 18 0;
#X connect 11 0 113 0;
#X connect 12 0 19 0;
#X connect 13 0 115 0;
#X connect 14 0 55 0;
#X connect 15 0 6 0;
#X connect 16 0 89 0;
#X connect 17 0 9 0;
#X connect 18 0 11 0;
#X connect 19 0 13 0;
#X connect 20 0 22 0;
#X connect 21 0 114 0;
#X connect 22 0 21 0;
#X connect 23 0 25 0;
#X connect 24 0 44 0;
#X connect 25 0 24 0;
#X connect 26 0 28 0;
#X connect 27 0 111 0;
#X connect 28 0 27 0;
#X connect 29 0 31 0;
#X connect 30 0 45 0;
#X connect 30 0 86 0;
#X connect 31 0 30 0;
#X connect 39 0 38 0;
#X connect 41 0 36 0;
#X connect 42 0 37 0;
#X connect 43 0 34 0;
#X connect 44 0 32 0;
#X connect 45 0 2 0;
#X connect 46 0 29 0;
#X connect 46 1 26 0;
#X connect 46 2 23 0;
#X connect 46 3 20 0;
#X connect 46 4 12 0;
#X connect 46 5 10 0;
#X connect 46 6 8 0;
#X connect 46 7 4 0;
#X connect 46 14 5 0;
#X connect 46 15 7 0;
#X connect 47 0 84 0;
#X connect 47 1 53 0;
#X connect 47 2 39 0;
#X connect 49 0 52 0;
#X connect 51 0 3 0;
#X connect 52 0 47 0;
#X connect 53 0 51 0;
#X connect 55 0 42 0;
#X connect 55 1 54 0;
#X connect 56 0 57 0;
#X connect 56 1 57 1;
#X connect 56 2 61 0;
#X connect 57 0 62 0;
#X connect 58 0 59 1;
#X connect 59 0 60 1;
#X connect 60 0 62 1;
#X connect 61 0 60 0;
#X connect 61 1 59 0;
#X connect 62 0 63 0;
#X connect 63 0 64 0;
#X connect 63 1 67 0;
#X connect 63 2 69 0;
#X connect 63 3 71 0;
#X connect 63 4 73 0;
#X connect 64 0 65 0;
#X connect 65 0 66 0;
#X connect 67 0 68 0;
#X connect 68 0 75 0;
#X connect 69 0 70 0;
#X connect 70 0 76 0;
#X connect 71 0 72 0;
#X connect 72 0 77 0;
#X connect 73 0 74 0;
#X connect 74 0 78 0;
#X connect 79 0 80 0;
#X connect 80 0 81 0;
#X connect 81 1 83 0;
#X connect 83 0 82 0;
#X connect 88 0 87 0;
#X connect 89 0 96 0;
#X connect 90 0 91 0;
#X connect 91 0 96 1;
#X connect 93 0 48 0;
#X connect 93 1 88 0;
#X connect 93 2 94 0;
#X connect 94 0 92 0;
#X connect 95 0 85 0;
#X connect 95 1 41 0;
#X connect 96 0 90 0;
#X connect 96 0 95 0;
#X connect 100 0 97 0;
#X connect 101 0 98 0;
#X connect 103 0 33 0;
#X connect 104 0 35 0;
#X connect 106 0 105 0;
#X connect 108 0 107 0;
#X connect 109 0 101 0;
#X connect 109 1 108 0;
#X connect 111 0 100 0;
#X connect 111 1 112 0;
#X connect 112 0 110 0;
#X connect 113 0 106 0;
#X connect 113 1 104 0;
#X connect 114 0 103 0;
#X connect 114 1 106 0;
#X connect 115 0 99 0;
#X connect 115 1 43 0;
#X restore 713 45 pd knobs-and-keys;
#N canvas 17 53 614 316 wifi 0;
#N canvas 4 50 450 300 once 0;
#X obj 67 30 inlet;
#X obj 67 52 spigot 1;
#X obj 67 74 t a b;
#X obj 67 96 outlet;
#X msg 149 64 0;
#X connect 0 0 1 0;
#X connect 1 0 2 0;
#X connect 2 0 3 0;
#X connect 2 1 4 0;
#X connect 4 0 1 1;
#X restore 177 103 pd once;
#X obj 177 133 sel 0 1;
#X obj 77 243 shell;
#X obj 332 225 shell;
#N canvas 4 50 450 300 once 0;
#X obj 67 30 inlet;
#X obj 67 52 spigot 1;
#X obj 67 74 t a b;
#X obj 67 96 outlet;
#X msg 149 64 0;
#X connect 0 0 1 0;
#X connect 1 0 2 0;
#X connect 2 0 3 0;
#X connect 2 1 4 0;
#X connect 4 0 1 1;
#X restore 110 273 pd once;
#X msg 77 185 sudo systemctl start wpa_supplicant;
#X msg 134 214 sudo systemctl start dhcpcd;
#X msg 332 186 sudo systemctl start createap;
#X obj 177 68 r shiftKey;
#X msg 361 136 sudo systemctl stop createap;
#X connect 0 0 1 0;
#X connect 1 0 5 0;
#X connect 1 1 7 0;
#X connect 2 1 4 0;
#X connect 4 0 6 0;
#X connect 5 0 2 0;
#X connect 6 0 2 0;
#X connect 7 0 3 0;
#X connect 8 0 0 0;
#X connect 9 0 3 0;
#X restore 714 148 pd wifi;
#X obj 385 517 s oscOut;
#X obj 385 382 r link-session-present;
#X obj 970 206 r trigSource;
#X msg 438 255 \; pd dsp 1 \;;
#X msg 385 477 sendtyped /linkpresent i \$1;
#X obj 385 447 i;
#X obj 208 50 t b b b b, f 58;
#N canvas 10 53 828 672 led 0;
#X obj 182 292 rpi_gpio 22 0 1;
#X obj 63 293 rpi_gpio 23 0 1;
#X obj 299 294 rpi_gpio 24 0 1;
#X obj 180 50 routeOSC /led;
#X obj 181 77 % 8;
#X obj 182 110 t f f f;
#X obj 182 132 int;
#X obj 202 160 int;
#X obj 227 130 int;
#X obj 235 204 & 1;
#X obj 198 207 & 1;
#X obj 156 207 & 1;
#X obj 198 185 >> 1;
#X obj 156 185 >> 0;
#X obj 235 182 >> 2;
#X obj 185 24 r oscIn;
#X obj 147 235 == 0;
#X obj 196 232 == 0;
#X obj 245 232 == 0;
#X obj 124 21 r led;
#X obj 9 13 r still-loc-led;
#X obj 129 67 i;
#X obj 9 36 sel 1 0;
#X obj 9 59 4;
#X connect 3 0 4 0;
#X connect 4 0 5 0;
#X connect 5 0 6 0;
#X connect 5 1 7 0;
#X connect 5 2 8 0;
#X connect 6 0 13 0;
#X connect 7 0 12 0;
#X connect 8 0 14 0;
#X connect 9 0 18 0;
#X connect 10 0 17 0;
#X connect 11 0 16 0;
#X connect 12 0 10 0;
#X connect 13 0 11 0;
#X connect 14 0 9 0;
#X connect 15 0 3 0;
#X connect 16 0 1 0;
#X connect 17 0 0 0;
#X connect 18 0 2 0;
#X connect 19 0 21 0;
#X connect 20 0 22 0;
#X connect 21 0 4 0;
#X connect 22 0 23 0;
#X connect 22 1 21 0;
#X connect 23 0 4 0;
#X restore 714 71 pd led;
#X obj 553 138 s recallShiftParams;
#X obj 971 41 r inputGain;
#N canvas 596 100 1202 764 metro-and-trig 0;
#X obj 767 703 s oscOut;
#X obj 811 139 r link-session-present;
#X obj 264 63 inlet;
#X obj 264 179 spigot;
#X obj 297 152 == 1;
#X obj 297 124 r trigLocal;
#X obj 264 232 sel 0;
#X obj 264 86 t a a a a, f 76;
#X obj 377 172 spigot;
#X obj 410 120 r trigLocal;
#X obj 410 145 == 2;
#X obj 264 202 spigot;
#X obj 377 195 spigot;
#X obj 377 245 sel 0;
#X obj 570 172 spigot;
#X obj 603 120 r trigLocal;
#X obj 570 225 sel 0;
#X obj 717 155 spigot;
#X obj 750 103 r trigLocal;
#X obj 570 195 spigot;
#X obj 717 178 spigot;
#X obj 717 228 sel 0;
#X obj 717 201 % 180;
#X obj 570 508 t b;
#X obj 377 218 % 180;
#X obj 750 361 r midiNoteIn;
#X obj 750 444 spigot;
#X obj 783 390 r trigLocal;
#X obj 767 575 sel 0;
#X obj 794 602 t b;
#X obj 794 625 1;
#X obj 767 598 0;
#X msg 767 669 sendtyped /trig i \$1;
#X obj 452 159 r midi-clock-present;
#N canvas 4 53 450 300 flash 0;
#X obj 35 15 inlet;
#X text 89 16 bang;
#X obj 35 38 route bang stop, f 24;
#X obj 35 204 1;
#X obj 66 231 outlet;
#X obj 66 179 0;
#X obj 35 104 t b b b, f 11;
#X msg 98 128 stop;
#X obj 160 83 t b b;
#X obj 160 166 0;
#X obj 66 155 del 95;
#X connect 0 0 2 0;
#X connect 2 0 6 0;
#X connect 2 1 8 0;
#X connect 3 0 4 0;
#X connect 5 0 4 0;
#X connect 6 0 3 0;
#X connect 6 1 10 0;
#X connect 6 2 7 0;
#X connect 7 0 10 0;
#X connect 8 0 9 0;
#X connect 8 1 7 0;
#X connect 9 0 4 0;
#X connect 10 0 5 0;
#X restore 570 540 pd flash;
#X obj 733 495 pack 0 0 0;
#X obj 733 518 route 1;
#X obj 733 472 poly 1 1;
#X obj 734 540 unpack;
#X obj 783 415 == 3;
#X obj 603 145 == 4;
#X obj 750 128 == 5;
#X connect 1 0 19 1;
#X connect 1 0 20 1;
#X connect 2 0 7 0;
#X connect 3 0 11 0;
#X connect 4 0 3 1;
#X connect 5 0 4 0;
#X connect 6 0 23 0;
#X connect 7 0 3 0;
#X connect 7 1 8 0;
#X connect 7 2 14 0;
#X connect 7 3 17 0;
#X connect 8 0 12 0;
#X connect 9 0 10 0;
#X connect 10 0 8 1;
#X connect 11 0 6 0;
#X connect 12 0 24 0;
#X connect 13 0 23 0;
#X connect 14 0 19 0;
#X connect 15 0 40 0;
#X connect 16 0 23 0;
#X connect 17 0 20 0;
#X connect 18 0 41 0;
#X connect 19 0 16 0;
#X connect 20 0 22 0;
#X connect 21 0 23 0;
#X connect 22 0 21 0;
#X connect 23 0 34 0;
#X connect 24 0 13 0;
#X connect 25 0 26 0;
#X connect 26 0 37 0;
#X connect 27 0 39 0;
#X connect 28 0 31 0;
#X connect 28 1 29 0;
#X connect 29 0 30 0;
#X connect 30 0 32 0;
#X connect 31 0 32 0;
#X connect 32 0 0 0;
#X connect 33 0 12 1;
#X connect 33 0 11 1;
#X connect 34 0 32 0;
#X connect 35 0 36 0;
#X connect 36 0 38 0;
#X connect 37 0 35 0;
#X connect 37 1 35 1;
#X connect 37 2 35 2;
#X connect 38 1 28 0;
#X connect 39 0 26 1;
#X connect 40 0 14 1;
#X connect 41 0 17 1;
#X restore 714 229 pd metro-and-trig;
#X text 890 19 shift params;
#X obj 103 496 tgl 15 0 empty empty empty 17 7 0 10 -262144 -1 -1 0
1;
#X obj 103 521 s enableKnobs;
#X obj 44 410 s oscConnected;
#X obj 44 239 spigot 0;
#X obj 89 208 r oscConnected;
#X obj 235 232 s ping;
#X obj 412 412 r ping;
#X obj 438 155 delay 200;
#N canvas 526 107 1136 905 knob-sequencer 0;
#X obj 87 515 seq/seq knob-seq;
#X obj 91 43 seq/metronome360;
#X msg 830 245 stop;
#X msg 628 313 arm;
#X text 906 424 beat clock \, events \, controls in;
#X text 906 438 events and status out;
#X text 654 285 arm recording;
#N canvas 84 99 1493 885 seq-button-control 0;
#X obj 46 475 sel 0 1 2 3, f 54;
#X obj 46 550 t b b;
#X msg 78 585 1;
#X obj 139 526 t b b;
#X msg 159 547 0;
#X msg 361 366 2;
#X obj 229 527 t b b;
#X msg 273 557 0;
#X obj 323 530 t b b b;
#X msg 406 556 1;
#X obj 232 316 t b b b;
#X msg 791 265 Sequencer: Playing;
#X msg 939 265 Sequencer: Stopped;
#X msg 1094 265 Sequencer: Enabled;
#X msg 1248 264 Sequencer: Recording;
#X text 800 32 states are: 0 = stopped \, 1 = playing \, 2 = rec enabled
\, 3 = recording, f 70;
#X text 825 151 Controls LED & Screen Infomation:;
#X text 19 10 Controls State With Aux Button;
#X obj 611 540 t b b;
#X obj 674 634 sel 0 1 2 3, f 33;
#X obj 674 586 delay 100;
#X text 675 543 Flashes LED at loop & sets color after sequence stop
;
#X msg 674 661 0;
#X msg 611 584 7;
#X obj 46 33 inlet;
#X msg 947 289 0;
#X obj 975 383 s aux-label-\$1;
#X obj 1171 386 s aux-led-\$1;
#X obj 674 703 s aux-led-\$1;
#X obj 665 345 t b;
#X obj 665 345;
#X obj 665 324 route end rec;
#X obj 714 402 t b b;
#X msg 746 437 3;
#X floatatom 935 675 5 0 0 0 - - -;
#X obj 474 195 t b b;
#X msg 506 230 1;
#X text 328 274 press and hold;
#X obj 46 361 v seq-\$1-state;
#X obj 46 659 s seq-\$1-start;
#X obj 85 608 v seq-\$1-state;
#X obj 138 627 s seq-\$1-stop;
#X obj 159 569 v seq-\$1-state;
#X obj 273 579 v seq-\$1-state;
#X obj 241 624 s seq-\$1-stop;
#X obj 347 631 s seq-\$1-start;
#X obj 370 603 s seq-\$1-end_seq;
#X obj 406 578 v seq-\$1-state;
#X obj 674 610 v seq-\$1-state;
#X obj 714 511 s seq-\$1-record;
#X obj 748 463 v seq-\$1-state;
#X obj 232 408 s seq-\$1-recenable;
#X obj 255 381 s seq-\$1-stop;
#X obj 365 388 v seq-\$1-state;
#X obj 598 179 r seq-\$1-status;
#X obj 474 304 s seq-\$1-start;
#X obj 513 252 v seq-\$1-state;
#X obj 791 179 r seq-\$1-start;
#X obj 939 182 r seq-\$1-stop;
#X obj 1094 180 r seq-\$1-recenable;
#X obj 1248 179 r seq-\$1-record;
#X msg 1240 298 1;
#X msg 845 661 1;
#X msg 831 305 2;
#X msg 731 660 2;
#X msg 1097 291 5;
#X msg 788 661 5;
#N canvas 726 246 639 656 press-hold 0;
#X obj 39 5 inlet;
#X text 90 6 int 0-1;
#X text 155 398 if hold;
#X obj 142 414 outlet;
#X obj 39 415 outlet;
#X obj 39 125 t b b;
#X text 57 192 cancel delay;
#X obj 39 102 sel 0 1, f 35;
#X text 195 129 start delay;
#X obj 142 209 del 500;
#X msg 66 169 stop;
#X text 7 365 output bang \, if 1 was pressed;
#X obj 39 245 f 0;
#X obj 161 176 1;
#X obj 142 130 t b b b;
#X obj 142 232 t b b;
#X obj 39 268 sel 1;
#X obj 169 257 0;
#X obj 39 291 t b b;
#X connect 0 0 7 0;
#X connect 5 0 12 0;
#X connect 5 1 10 0;
#X connect 7 0 5 0;
#X connect 7 1 14 0;
#X connect 9 0 15 0;
#X connect 10 0 9 0;
#X connect 12 0 16 0;
#X connect 13 0 12 1;
#X connect 14 0 9 0;
#X connect 14 1 13 0;
#X connect 14 2 10 0;
#X connect 15 0 3 0;
#X connect 15 1 17 0;
#X connect 16 0 18 0;
#X connect 17 0 12 1;
#X connect 18 0 4 0;
#X connect 18 1 17 0;
#X restore 46 73 pd press-hold;
#X obj 508 37 inlet;
#X text 544 41 start;
#X obj 719 35 inlet;
#X text 758 39 stop;
#X connect 0 0 1 0;
#X connect 0 1 3 0;
#X connect 0 2 6 0;
#X connect 0 3 8 0;
#X connect 1 0 39 0;
#X connect 1 1 2 0;
#X connect 2 0 40 0;
#X connect 3 0 41 0;
#X connect 3 1 4 0;
#X connect 4 0 42 0;
#X connect 5 0 53 0;
#X connect 6 0 44 0;
#X connect 6 1 7 0;
#X connect 7 0 43 0;
#X connect 8 0 45 0;
#X connect 8 1 46 0;
#X connect 8 2 9 0;
#X connect 9 0 47 0;
#X connect 10 0 51 0;
#X connect 10 1 52 0;
#X connect 10 2 5 0;
#X connect 11 0 26 0;
#X connect 12 0 26 0;
#X connect 13 0 26 0;
#X connect 14 0 26 0;
#X connect 18 0 23 0;
#X connect 18 1 20 0;
#X connect 19 0 22 0;
#X connect 19 1 64 0;
#X connect 19 2 66 0;
#X connect 19 3 62 0;
#X connect 20 0 48 0;
#X connect 22 0 28 0;
#X connect 23 0 28 0;
#X connect 24 0 67 0;
#X connect 25 0 27 0;
#X connect 29 0 18 0;
#X connect 31 0 29 0;
#X connect 31 0 30 0;
#X connect 31 1 32 0;
#X connect 32 0 49 0;
#X connect 32 1 33 0;
#X connect 33 0 50 0;
#X connect 34 0 28 0;
#X connect 35 0 55 0;
#X connect 35 1 36 0;
#X connect 36 0 56 0;
#X connect 38 0 0 0;
#X connect 48 0 19 0;
#X connect 54 0 31 0;
#X connect 57 0 11 0;
#X connect 57 0 63 0;
#X connect 58 0 12 0;
#X connect 58 0 25 0;
#X connect 59 0 13 0;
#X connect 59 0 65 0;
#X connect 60 0 14 0;
#X connect 60 0 61 0;
#X connect 61 0 27 0;
#X connect 62 0 28 0;
#X connect 63 0 27 0;
#X connect 64 0 28 0;
#X connect 65 0 27 0;
#X connect 66 0 28 0;
#X connect 67 0 38 0;
#X connect 67 1 10 0;
#X connect 68 0 35 0;
#X connect 70 0 3 0;
#X restore 417 187 pd seq-button-control;
#X obj 803 184 r seq-\$1-stop;
#X obj 899 223 r seq-\$1-start;
#X obj 615 258 r seq-\$1-recenable;
#X obj 616 286 t b;
#X obj 478 80 r global-start;
#X obj 540 133 r global-stop;
#X obj 417 48 r seq-but;
#X obj 445 241 r aux-led-\$1;
#X obj 494 298 s led;
#X obj 180 541 s seq-\$1-status;
#X obj 359 842 s oscOut;
#X obj 426 404 s enableKnobs;
#X msg 454 371 1;
#X obj 359 323 t b;
#X obj 454 323 t b;
#X msg 377 359 0;
#X obj 407 288 sel 2;
#X obj 88 566 route knob1 knob2 knob3 knob4 knob5, f 93;
#X obj 22 678 i;
#X obj 199 681 i;
#X obj 378 686 i;
#X obj 549 707 i;
#X obj 719 716 i;
#X obj 477 462 r ping;
#X msg 899 250 play;
#X obj 732 659 s oscOut;
#X obj 130 114 outlet;
#X text 175 110 ticks for clock;
#X obj 91 86 t a a a;
#X msg 731 629 sendtyped /seq i \$1;
#X obj 720 518 symbol;
#X obj 844 589 0;
#X obj 754 588 1;
#X obj 784 586 2;
#X obj 812 587 3;
#X obj 486 495 t b b b b b;
#X obj 723 554 sel end arm rec play stop;
#X obj 803 207 t b b;
#X obj 795 81 r recallShiftParams;
#X msg 803 317 write /sdcard/System/knob-seq.txt;
#X msg 795 104 read /sdcard/System/knob-seq.txt;
#X obj 180 455 r \$0-seq-options;
#X obj 795 130 s \$0-seq-options;
#X obj 803 340 s \$0-seq-options;
#X obj 899 273 s \$0-seq-options;
#X obj 111 652 r knob1;
#X obj 261 656 r knob2;
#X obj 411 653 r knob3;
#X obj 562 666 r knob4;
#X obj 732 685 r knob5;
#N canvas 4 53 1207 492 final-knobs 0;
#X msg 65 357 knob1 \$1;
#X obj 48 132 r knob1;
#X obj 229 208 r knob2;
#X obj 575 328 r knob4;
#X obj 595 393 r knob5;
#X msg 205 354 knob2 \$1;
#X msg 449 321 knob3 \$1;
#X msg 576 352 knob4 \$1;
#X msg 596 419 knob5 \$1;
#X obj 270 456 outlet;
#X obj 449 196 r knob3;
#X connect 0 0 9 0;
#X connect 1 0 0 0;
#X connect 2 0 5 0;
#X connect 3 0 7 0;
#X connect 4 0 8 0;
#X connect 5 0 9 0;
#X connect 6 0 9 0;
#X connect 7 0 9 0;
#X connect 8 0 9 0;
#X connect 10 0 6 0;
#X restore 195 261 pd final-knobs;
#X obj 86 10 r start-the-met;
#X obj 236 351 loadbang;
#X msg 236 404 init;
#X obj 236 374 del 2400;
#X obj 56 689 r new-scene!;
#X obj 199 747 check-change;
#X obj 233 697 r new-scene!;
#X obj 378 751 check-change;
#X obj 412 701 r new-scene!;
#X obj 549 755 check-change;
#X obj 583 708 r new-scene!;
#X obj 719 761 check-change;
#X obj 753 709 r new-scene!;
#X msg 22 786 sendtyped /knob1 ii \$1 \$2;
#X msg 199 786 sendtyped /knob2 ii \$1 \$2;
#X msg 378 786 sendtyped /knob3 ii \$1 \$2;
#X msg 549 788 sendtyped /knob4 ii \$1 \$2;
#X msg 719 790 sendtyped /knob5 ii \$1 \$2;
#X obj 22 740 check-change;
#X obj 91 713 r mode-change!;
#X obj 268 721 r mode-change!;
#X obj 447 724 r mode-change!;
#X obj 618 730 r mode-change!;
#X obj 788 735 r mode-change!;
#X connect 0 0 25 0;
#X connect 0 1 17 0;
#X connect 0 1 38 0;
#X connect 1 0 36 0;
#X connect 2 0 51 0;
#X connect 3 0 0 3;
#X connect 8 0 45 0;
#X connect 9 0 32 0;
#X connect 10 0 11 0;
#X connect 11 0 3 0;
#X connect 12 0 7 1;
#X connect 13 0 7 2;
#X connect 14 0 7 0;
#X connect 15 0 16 0;
#X connect 15 0 24 0;
#X connect 20 0 19 0;
#X connect 21 0 23 0;
#X connect 22 0 20 0;
#X connect 23 0 19 0;
#X connect 24 0 21 0;
#X connect 24 1 22 0;
#X connect 25 0 26 0;
#X connect 25 1 27 0;
#X connect 25 2 28 0;
#X connect 25 3 29 0;
#X connect 25 4 30 0;
#X connect 26 0 77 0;
#X connect 27 0 64 0;
#X connect 28 0 66 0;
#X connect 29 0 68 0;
#X connect 30 0 70 0;
#X connect 31 0 43 0;
#X connect 32 0 52 0;
#X connect 36 0 0 0;
#X connect 36 1 0 1;
#X connect 36 2 34 0;
#X connect 37 0 33 0;
#X connect 38 0 44 0;
#X connect 39 0 37 0;
#X connect 40 0 37 0;
#X connect 41 0 37 0;
#X connect 42 0 37 0;
#X connect 43 0 26 0;
#X connect 43 1 27 0;
#X connect 43 2 28 0;
#X connect 43 3 29 0;
#X connect 43 4 30 0;
#X connect 44 1 40 0;
#X connect 44 2 41 0;
#X connect 44 3 42 0;
#X connect 44 4 39 0;
#X connect 45 0 47 0;
#X connect 45 1 2 0;
#X connect 46 0 48 0;
#X connect 47 0 51 0;
#X connect 48 0 50 0;
#X connect 49 0 0 3;
#X connect 53 0 26 0;
#X connect 54 0 27 0;
#X connect 55 0 28 0;
#X connect 56 0 29 0;
#X connect 57 0 30 0;
#X connect 58 0 0 2;
#X connect 59 0 1 0;
#X connect 60 0 62 0;
#X connect 61 0 0 3;
#X connect 62 0 61 0;
#X connect 63 0 77 1;
#X connect 64 0 73 0;
#X connect 65 0 64 1;
#X connect 66 0 74 0;
#X connect 67 0 66 1;
#X connect 68 0 75 0;
#X connect 69 0 68 1;
#X connect 70 0 76 0;
#X connect 71 0 70 1;
#X connect 72 0 18 0;
#X connect 73 0 18 0;
#X connect 74 0 18 0;
#X connect 75 0 18 0;
#X connect 76 0 18 0;
#X connect 77 0 72 0;
#X connect 78 0 77 2;
#X connect 79 0 64 2;
#X connect 80 0 66 2;
#X connect 81 0 68 2;
#X connect 82 0 70 2;
#X restore 714 203 pd knob-sequencer;
#X obj 208 122 tgl 15 0 empty empty empty 17 7 0 10 -262144 -1 -1 0
1;
#N canvas 4 54 906 508 jeremys-midi-test 0;
#X obj 126 90 metro 1000;
#X obj 125 65 tgl 15 0 empty empty empty 17 7 0 10 -262144 -1 -1 0
1;
#X msg 321 298 sendtyped /midinote ii \$1 \$2;
#X obj 321 321 s oscOut;
#X obj 159 125 + 1;
#X obj 156 180 >= 127;
#X obj 156 203 sel 0 1;
#X obj 156 150 t a a;
#X obj 128 124 f 0;
#X obj 183 225 f 0;
#X obj 156 226 f;
#X obj 156 249 f;
#X obj 321 240 makenote 100 950;
#X obj 321 263 pack 0 0;
#X obj 291 76 loadbang;
#X obj 291 99 del 500;
#X connect 0 0 8 0;
#X connect 1 0 0 0;
#X connect 2 0 3 0;
#X connect 4 0 7 0;
#X connect 5 0 6 0;
#X connect 6 0 10 0;
#X connect 6 1 9 0;
#X connect 7 0 5 0;
#X connect 7 1 10 1;
#X connect 8 0 4 0;
#X connect 8 0 12 0;
#X connect 9 0 11 0;
#X connect 10 0 11 0;
#X connect 11 0 8 1;
#X connect 12 0 13 0;
#X connect 12 1 13 1;
#X connect 13 0 2 0;
#X connect 14 0 15 0;
#X restore 110 642 pd jeremys-midi-test;
#X obj 235 198 delay 110;
#X obj 323 142 delay 100;
#X msg 323 175 ./pd_loaded.sh;
#X msg 208 257 connect localhost 4000;
#N canvas 171 234 1266 771 save-shift-params 0;
#X obj 311 273 r trigSource;
#X obj 396 289 r inputGain;
#X obj 365 318 i 100;
#X obj 295 320 i 0;
#X obj 210 318 i 1;
#X obj 299 224 t b b b b;
#X obj 279 33 r saveShiftParams;
#X obj 418 144 t b b;
#X obj 607 223 r recallShiftParams;
#X msg 933 272 read /sdcard/System/shift-params.txt;
#X obj 803 586 s midiChRecall;
#X obj 698 586 s trigRecall;
#X obj 607 588 s gainRecall;
#X obj 191 234 r midiChPre;
#X obj 900 312 text define saveShifts;
#X msg 900 241 write /sdcard/System/shift-params.txt;
#X obj 244 422 text set saveShifts;
#X obj 210 341 pack 0 2;
#X obj 245 388 unpack;
#X obj 295 343 pack 0 1;
#X obj 365 341 pack 0 0;
#X obj 607 251 t b b;
#X obj 607 435 text get saveShifts;
#X obj 607 387 f;
#X obj 643 386 + 1;
#X obj 607 359 until;
#X obj 607 330 3;
#X obj 607 298 t b b;
#X obj 664 344 0;
#X obj 607 410 t a a;
#X obj 607 458 list prepend;
#X obj 607 481 list trim;
#X obj 607 504 route 0 1 2, f 39;
#X obj 398 98 spigot 0;
#X obj 439 44 r recallShiftParams;
#X msg 439 67 1;
#X connect 0 0 3 1;
#X connect 1 0 2 1;
#X connect 2 0 20 0;
#X connect 3 0 19 0;
#X connect 4 0 17 0;
#X connect 5 0 4 0;
#X connect 5 1 3 0;
#X connect 5 2 2 0;
#X connect 6 0 33 0;
#X connect 7 0 15 0;
#X connect 7 1 5 0;
#X connect 8 0 21 0;
#X connect 9 0 14 0;
#X connect 13 0 4 1;
#X connect 15 0 14 0;
#X connect 17 0 18 0;
#X connect 18 0 16 0;
#X connect 18 1 16 1;
#X connect 19 0 18 0;
#X connect 20 0 18 0;
#X connect 21 0 27 0;
#X connect 21 1 9 0;
#X connect 22 0 30 0;
#X connect 23 0 24 0;
#X connect 23 0 29 0;
#X connect 24 0 23 1;
#X connect 25 0 23 0;
#X connect 26 0 25 0;
#X connect 27 0 26 0;
#X connect 27 1 28 0;
#X connect 28 0 23 1;
#X connect 29 0 22 0;
#X connect 29 1 30 1;
#X connect 30 0 31 0;
#X connect 31 0 32 0;
#X connect 32 0 12 0;
#X connect 32 1 11 0;
#X connect 32 2 10 0;
#X connect 33 0 7 0;
#X connect 34 0 35 0;
#X connect 35 0 33 1;
#X restore 715 123 pd save-shift-params;
#X obj 970 440 r midiChPre;
#X obj 970 685 s midiCh;
#X text 1049 39 Input Gain is handled in CPP;
#X text 1061 478 1-16 midi channel;
#X obj 970 390 s trigLocal;
#X obj 1039 352 s oscOut;
#X obj 970 263 t a a, f 12;
#X msg 1039 319 sendtyped /printTrig i \$1;
#X obj 971 145 s oscOut;
#X msg 971 121 sendtyped /gain i \$1;
#X obj 970 505 t a a, f 14;
#X obj 1051 657 s oscOut;
#X msg 1051 623 sendtyped /midiChannel i \$1;
#X obj 465 228 s start-the-met;
#X obj 971 94 i;
#X obj 890 45 r ping;
#X obj 970 314 * 5;
#X obj 970 363 i;
#X obj 970 562 * 15;
#X obj 970 635 int;
#X obj 970 658 + 1;
#N canvas 440 131 878 668 scene-saving 0;
#X obj 460 478 text define scenes;
#X obj 99 272 r recallShiftParams;
#X msg 460 371 write /sdcard/System/scenes-save.txt;
#X msg 210 329 read /sdcard/System/scenes-save.txt;
#X obj 154 433 v scene-count;
#X obj 154 402 text size scenes;
#N canvas 4 53 964 834 save-delete-scene 0;
#X obj 272 363 v scene-count;
#X obj 137 321 t b b, f 23;
#X text 290 345 set number;
#X obj 272 439 0;
#X obj 137 532 text set scenes;
#N canvas 6 53 448 449 get-current-knobs 0;
#X obj 32 17 inlet;
#X obj 89 45 r knob1;
#X obj 109 71 r knob2;
#X obj 129 102 r knob3;
#X obj 145 130 r knob4;
#X obj 164 155 r knob5;
#X obj 32 252 list store;
#X obj 32 275 outlet;
#X obj 32 118 t b b b;
#X obj 236 154 r current-script;
#X obj 199 198 symbol;
#X obj 89 222 pack 0 0 0 0 0 s;
#X connect 0 0 8 0;
#X connect 1 0 11 0;
#X connect 2 0 11 1;
#X connect 3 0 11 2;
#X connect 4 0 11 3;
#X connect 5 0 11 4;
#X connect 6 0 7 0;
#X connect 8 0 6 0;
#X connect 8 1 11 0;
#X connect 8 2 10 0;
#X connect 9 0 10 1;
#X connect 10 0 11 5;
#X connect 11 0 6 1;
#X restore 137 387 pd get-current-knobs;
#N canvas 726 246 639 656 press-hold 0;
#X obj 39 5 inlet;
#X text 90 6 int 0-1;
#X text 155 398 if hold;
#X obj 142 414 outlet;
#X obj 39 415 outlet;
#X obj 39 125 t b b;
#X text 57 192 cancel delay;
#X obj 39 102 sel 0 1, f 35;
#X text 195 129 start delay;
#X msg 66 169 stop;
#X text 7 365 output bang \, if 1 was pressed;
#X obj 39 245 f 0;
#X obj 161 176 1;
#X obj 142 130 t b b b;
#X obj 142 232 t b b;
#X obj 39 268 sel 1;
#X obj 169 257 0;
#X obj 39 291 t b b;
#X obj 142 206 del 2000;
#X connect 0 0 7 0;
#X connect 5 0 11 0;
#X connect 5 1 9 0;
#X connect 7 0 5 0;
#X connect 7 1 13 0;
#X connect 9 0 18 0;
#X connect 11 0 15 0;
#X connect 12 0 11 1;
#X connect 13 0 18 0;
#X connect 13 1 12 0;
#X connect 13 2 9 0;
#X connect 14 0 3 0;
#X connect 14 1 16 0;
#X connect 15 0 17 0;
#X connect 16 0 11 1;
#X connect 17 0 4 0;
#X connect 17 1 16 0;
#X connect 18 0 14 0;
#X restore 98 176 pd press-hold;
#X f 65;
#X obj 98 105 r write-scene;
#X obj 98 148 spigot 0, f 17;
#X obj 197 97 r recallShiftParams;
#X msg 197 120 1;
#X text 507 182 delete scene;
#X text 73 226 save scene;
#X obj 117 575 outlet;
#X obj 485 257 v current-scene;
#X obj 524 315 text delete scenes;
#X obj 504 348 text size scenes;
#X obj 504 372 v scene-count;
#X obj 485 284 t b b a;
#X obj 485 433 s post-delete;
#X obj 272 474 t a;
#X obj 272 386 moses 0, f 11;
#X obj 272 409 t b;
#X obj 335 418 + 1;
#X obj 362 481 v scene-count;
#X obj 335 441 t a a;
#X obj 98 290 t b b b;
#X obj 485 407 del 10;
#X obj 72 626 s go-to-scene;
#X connect 0 0 21 0;
#X connect 1 0 5 0;
#X connect 1 1 0 0;
#X connect 3 0 20 0;
#X connect 5 0 4 0;
#X connect 6 0 26 0;
#X connect 6 1 14 0;
#X connect 7 0 8 0;
#X connect 8 0 6 0;
#X connect 9 0 10 0;
#X connect 10 0 8 1;
#X connect 14 0 18 0;
#X connect 16 0 17 0;
#X connect 18 0 27 0;
#X connect 18 1 16 0;
#X connect 18 2 15 0;
#X connect 20 0 4 1;
#X connect 21 0 22 0;
#X connect 21 1 23 0;
#X connect 22 0 3 0;
#X connect 23 0 25 0;
#X connect 25 0 20 0;
#X connect 25 1 24 0;
#X connect 26 0 28 0;
#X connect 26 1 13 0;
#X connect 26 2 1 0;
#X connect 27 0 19 0;
#X restore 460 137 pd save-delete-scene;
#N canvas 197 53 1593 975 change-scene 0;
#X obj 73 59 r scene-down;
#X obj 410 18 r scene-up;
#X text 737 111 change to saved mode;
#X text 737 135 update the knobs;
#X obj 73 115 v current-scene;
#X obj 73 218 < 0;
#X obj 73 158 - 1;
#X obj 73 191 t a a, f 17;
#X obj 73 404 v current-scene;
#X obj 73 302 f, f 15;
#X obj 73 241 sel 0 1, f 13;
#X obj 73 375 t a a, f 29;
#X obj 195 300 v scene-count;
#X obj 195 323 - 1;
#X text 226 320 max number;
#X obj 410 80 v current-scene;
#X obj 410 419 v current-scene;
#X obj 410 337 f, f 15;
#X obj 410 286 sel 0 1, f 13;
#X obj 410 390 t a a, f 29;
#X obj 459 169 v scene-count;
#X obj 459 222 - 1;
#X text 490 219 max number;
#X obj 410 103 + 1;
#X obj 410 136 t a b a, f 17;
#X obj 531 338 0;
#X obj 924 915 s oscOut;
#X obj 721 574 text get scenes;
#X obj 721 767 s krecall-1;
#X obj 920 650 s krecall-5;
#X obj 859 675 s krecall-4;
#X obj 813 711 s krecall-3;
#X obj 767 739 s krecall-2;
#X obj 594 639 + 1;
#X obj 101 87 r post-delete;
#X obj 644 333 r update-the-scenes;
#X obj 644 356 t b;
#X obj 644 380 -1;
#X obj 511 554 sel -1;
#X obj 544 677 s new-scene!;
#X obj 544 594 t b;
#X obj 676 550 route -1;
#X obj 73 82 t b;
#X obj 410 47 t b;
#X obj 544 617 del 10;
#X obj 671 435 v current-scene;
#X obj 410 253 > 0;
#X obj 459 192 max 0;
#X obj 644 410 t a a;
#X obj 511 480 i, f 12;
#X obj 175 590 r ping;
#X obj 175 736 s oscOut;
#X msg 175 703 sendtyped /updateSceneCount i \$1;
#X obj 175 674 v scene-count;
#X obj 511 509 t a a a b, f 28;
#X obj 262 470 r go-to-scene;
#X obj 262 497 v scene-count;
#X obj 262 523 - 1;
#X obj 838 197 r oscIn;
#X obj 838 228 route /currentScript;
#X obj 262 549 t a a;
#X obj 262 574 v current-scene;
#X text 888 199 receive the current script from the c++ os;
#X obj 838 303 s current-script;
#X obj 838 251 symbol;
#X msg 924 883 sendtyped /sceneRecall i \$1;
#X obj 721 597 list split 5, f 82;
#X obj 721 620 unpack 0 0 0 0 0, f 39;
#X obj 998 754 list, f 7;
#X obj 924 740 t a b;
#X msg 739 480 6;
#X obj 998 802 fudiformat -u;
#X obj 998 825 list tosymbol;
#X msg 998 850 sendtyped /sceneRecallString s \$1;
#X obj 998 777 list trim;
#X connect 0 0 42 0;
#X connect 1 0 43 0;
#X connect 4 0 6 0;
#X connect 5 0 10 0;
#X connect 6 0 7 0;
#X connect 7 0 5 0;
#X connect 7 1 9 1;
#X connect 9 0 11 0;
#X connect 10 0 9 0;
#X connect 10 1 12 0;
#X connect 11 0 8 0;
#X connect 11 1 49 0;
#X connect 12 0 13 0;
#X connect 13 0 11 0;
#X connect 15 0 23 0;
#X connect 17 0 19 0;
#X connect 18 0 17 0;
#X connect 18 1 25 0;
#X connect 19 0 16 0;
#X connect 19 1 49 0;
#X connect 20 0 47 0;
#X connect 21 0 46 1;
#X connect 23 0 24 0;
#X connect 24 0 46 0;
#X connect 24 1 20 0;
#X connect 24 2 17 1;
#X connect 25 0 19 0;
#X connect 27 0 66 0;
#X connect 33 0 69 0;
#X connect 34 0 4 0;
#X connect 35 0 36 0;
#X connect 36 0 37 0;
#X connect 37 0 48 0;
#X connect 38 1 40 0;
#X connect 40 0 44 0;
#X connect 41 1 27 0;
#X connect 42 0 4 0;
#X connect 43 0 15 0;
#X connect 44 0 39 0;
#X connect 46 0 18 0;
#X connect 47 0 21 0;
#X connect 48 0 49 0;
#X connect 48 1 45 0;
#X connect 49 0 54 0;
#X connect 50 0 53 0;
#X connect 52 0 51 0;
#X connect 53 0 52 0;
#X connect 54 0 38 0;
#X connect 54 1 33 0;
#X connect 54 2 41 0;
#X connect 54 3 53 0;
#X connect 55 0 56 0;
#X connect 56 0 57 0;
#X connect 57 0 60 0;
#X connect 58 0 59 0;
#X connect 59 0 64 0;
#X connect 60 0 61 0;
#X connect 60 1 49 0;
#X connect 64 0 63 0;
#X connect 65 0 26 0;
#X connect 66 0 67 0;
#X connect 66 1 68 1;
#X connect 67 0 28 0;
#X connect 67 1 32 0;
#X connect 67 2 31 0;
#X connect 67 3 30 0;
#X connect 67 4 29 0;
#X connect 68 0 74 0;
#X connect 69 0 65 0;
#X connect 69 1 68 0;
#X connect 70 0 49 0;
#X connect 71 0 72 0;
#X connect 72 0 73 0;
#X connect 73 0 26 0;
#X connect 74 0 71 0;
#X restore 460 101 pd change-scene;
#X obj 99 300 t b b b, f 19;
#X obj 99 495 s update-the-scenes;
#X text 224 303 read from file;
#X text 172 384 update size;
#X text 104 477 init the scene selection;
#X connect 1 0 8 0;
#X connect 2 0 0 0;
#X connect 3 0 0 0;
#X connect 5 0 4 0;
#X connect 6 0 2 0;
#X connect 8 0 9 0;
#X connect 8 1 5 0;
#X connect 8 2 3 0;
#X restore 714 176 pd scene-saving;
#X obj 208 73 del 1000;
#X obj 553 108 del 500;
#X obj 35 64 udpreceive 4001 localhost;
#X obj 438 178 t b b;
#X obj 465 205 1;
#X obj 208 173 t b b;
#X obj 970 291 / 1023;
#X obj 970 337 + 0.49999;
#X obj 970 539 / 1023;
#X obj 970 585 + 0.499999;
#X obj 970 608 i;
#X obj 1051 568 i;
#X obj 1081 522 r ping;
#X obj 1039 291 i;
#X obj 1084 236 r ping;
#X text 200 305 there isn't a mechanism for this patch to know when
the video engine is ready to receive params \, so we just send them
every second... (the 's ping');
#X connect 0 0 27 0;
#X connect 1 0 2 0;
#X connect 2 0 0 0;
#X connect 3 0 28 0;
#X connect 4 0 68 0;
#X connect 5 0 19 0;
#X connect 6 0 7 0;
#X connect 14 0 18 0;
#X connect 15 0 47 0;
#X connect 17 0 13 0;
#X connect 18 0 17 0;
#X connect 19 0 63 0;
#X connect 19 1 37 0;
#X connect 19 2 32 0;
#X connect 19 3 64 0;
#X connect 22 0 55 0;
#X connect 25 0 26 0;
#X connect 28 0 1 0;
#X connect 29 0 28 1;
#X connect 31 0 18 0;
#X connect 32 0 66 0;
#X connect 33 0 23 0;
#X connect 34 0 4 0;
#X connect 36 0 30 0;
#X connect 37 0 38 0;
#X connect 38 0 9 0;
#X connect 39 0 2 0;
#X connect 41 0 51 0;
#X connect 47 0 69 0;
#X connect 47 1 76 0;
#X connect 48 0 46 0;
#X connect 50 0 49 0;
#X connect 51 0 71 0;
#X connect 51 1 74 0;
#X connect 53 0 52 0;
#X connect 55 0 50 0;
#X connect 56 0 55 0;
#X connect 57 0 70 0;
#X connect 58 0 45 0;
#X connect 59 0 72 0;
#X connect 60 0 61 0;
#X connect 61 0 42 0;
#X connect 63 0 34 0;
#X connect 64 0 21 0;
#X connect 65 0 6 0;
#X connect 66 0 16 0;
#X connect 66 1 67 0;
#X connect 67 0 54 0;
#X connect 68 0 39 0;
#X connect 68 1 36 0;
#X connect 69 0 57 0;
#X connect 70 0 58 0;
#X connect 71 0 59 0;
#X connect 72 0 73 0;
#X connect 73 0 60 0;
#X connect 74 0 53 0;
#X connect 75 0 74 0;
#X connect 76 0 48 0;
#X connect 77 0 76 0;
