#N canvas 4 53 450 300 10;
#X msg 1334 626 /sdcard/modes/sza wow/theTruth;
#X obj 1336 658 list split 1;
#X obj 1336 681 print L;
#X obj 1372 710 print R;
#X connect 0 0 1 0;
#X connect 1 0 2 0;
#X connect 1 1 3 0;
