#N canvas 554 222 1159 675 10;
#X obj 25 4 inlet;
#X text 69 3 knob;
#X obj 656 33 inlet;
#X text 698 32 bool 0-1;
#X obj 76 546 spigot 1;
#X obj 656 86 sel 0 1, f 58;
#X obj 103 606 v \$0-save;
#X obj 76 666 outlet;
#X text 121 643 knob;
#X obj 76 578 t a a;
#X obj 122 382 v \$0-save;
#X obj 173 119 spigot 0;
#X obj 234 123 0;
#X obj 76 59 t a a a;
#X obj 95 335 spigot;
#X obj 193 286 t a a, f 7;
#X obj 95 297 t a a;
#X obj 199 336 spigot;
#X obj 232 311 == 0;
#X obj 95 418 >=;
#X obj 95 441 sel 1;
#X obj 199 441 sel 1;
#X obj 199 418 <=;
#X obj 254 547 1;
#X obj 121 521 r \$0-valve;
#X obj 254 571 s \$0-valve;
#X obj 95 247 spigot 0;
#X obj 105 145 r \$0-check;
#X obj 198 8 r \$0-capture;
#X text 669 110 if closed;
#X obj 725 187 s \$0-valve;
#X obj 725 163 0;
#X obj 690 212 s \$0-capture;
#X obj 690 186 0;
#X obj 656 210 0;
#X obj 656 236 s \$0-check;
#X obj 656 128 t b b b, f 12;
#X obj 861 190 s \$0-capture;
#X obj 828 234 s \$0-check;
#X obj 861 164 1;
#X obj 828 208 1;
#X obj 828 126 t b b, f 6;
#X obj 199 492 t b b b, f 19;
#X obj 310 524 0;
#X obj 310 547 s \$0-check;
#X obj 25 27 route set;
#X obj 173 95 f;
#X obj 198 31 t a a, f 10;
#X obj 198 55 sel 1;
#N canvas 1384 474 450 300 if-same 0;
#X obj 34 26 inlet;
#X obj 53 85 v \$0-save;
#X obj 34 125 -;
#X obj 34 148 abs;
#X obj 34 171 > 0.01;
#X obj 34 52 t a b a;
#X obj 34 194 sel 1 0, f 16;
#X obj 34 217 f;
#X obj 34 240 outlet;
#X obj 89 238 outlet;
#X text 141 238 unlock because there is no change;
#X text 35 267 pass on the value for further testing;
#X connect 0 0 5 0;
#X connect 1 0 2 1;
#X connect 2 0 3 0;
#X connect 3 0 4 0;
#X connect 4 0 6 0;
#X connect 5 0 2 0;
#X connect 5 1 1 0;
#X connect 5 2 7 1;
#X connect 6 0 7 0;
#X connect 6 1 9 0;
#X connect 7 0 8 0;
#X restore 173 169 pd if-same;
#X obj 173 142 t a b;
#N canvas 1384 474 450 300 if-greater-or-less 0;
#X obj 34 26 inlet;
#X obj 49 84 v \$0-save;
#X obj 34 110 <;
#X obj 34 165 outlet;
#X obj 34 49 t a b;
#X connect 0 0 4 0;
#X connect 1 0 2 1;
#X connect 2 0 3 0;
#X connect 4 0 2 0;
#X connect 4 1 1 0;
#X restore 173 199 pd if-greater-or-less;
#X obj 95 358 t a b;
#X obj 226 397 v \$0-save;
#X obj 199 373 t a b;
#X obj 656 56 change -1;
#X obj 504 511 t b;
#X obj 504 534 outlet;
#X text 548 535 trig that knob is still locked;
#X connect 0 0 45 0;
#X connect 2 0 55 0;
#X connect 4 0 9 0;
#X connect 5 0 36 0;
#X connect 5 1 41 0;
#X connect 9 0 7 0;
#X connect 9 1 6 0;
#X connect 10 0 19 1;
#X connect 11 0 50 0;
#X connect 12 0 11 1;
#X connect 13 0 4 0;
#X connect 13 1 26 0;
#X connect 13 2 46 0;
#X connect 14 0 52 0;
#X connect 15 0 14 1;
#X connect 15 1 18 0;
#X connect 16 0 14 0;
#X connect 16 1 17 0;
#X connect 17 0 54 0;
#X connect 18 0 17 1;
#X connect 19 0 20 0;
#X connect 20 0 42 0;
#X connect 20 1 56 0;
#X connect 21 0 42 0;
#X connect 21 1 56 0;
#X connect 22 0 21 0;
#X connect 23 0 25 0;
#X connect 24 0 4 1;
#X connect 26 0 16 0;
#X connect 27 0 26 1;
#X connect 28 0 47 0;
#X connect 31 0 30 0;
#X connect 33 0 32 0;
#X connect 34 0 35 0;
#X connect 36 0 34 0;
#X connect 36 1 33 0;
#X connect 36 2 31 0;
#X connect 39 0 37 0;
#X connect 40 0 38 0;
#X connect 41 0 40 0;
#X connect 41 1 39 0;
#X connect 42 1 23 0;
#X connect 42 2 43 0;
#X connect 43 0 44 0;
#X connect 45 0 9 0;
#X connect 45 1 13 0;
#X connect 46 0 11 0;
#X connect 47 0 48 0;
#X connect 47 1 11 1;
#X connect 48 0 46 0;
#X connect 49 0 51 0;
#X connect 49 1 42 0;
#X connect 50 0 49 0;
#X connect 50 1 12 0;
#X connect 51 0 15 0;
#X connect 52 0 19 0;
#X connect 52 1 10 0;
#X connect 53 0 22 1;
#X connect 54 0 22 0;
#X connect 54 1 53 0;
#X connect 55 0 5 0;
#X connect 56 0 57 0;
