#N canvas 63 88 866 464 12;
#X obj 66 264 pack;
#X text 261 205 pins are SR LOAD \, CLOCK and DATA 4th argument is
number bits to shift, f 27;
#X obj 53 213 rpi_gpio_shiftin 34 32 33 16;
#X obj 155 165 rpi_gpio 35 0 1;
#X msg 155 138 0;
#X text 224 142 have to pull clock en low;
#X obj 49 28 loadbang;
#X obj 53 128 delay 10;
#X obj 53 164 t b;
#X obj 53 75 t b b;
#X obj 53 52 delay 10;
#X obj 66 334 print;
#X obj 66 297 route 7, f 93;
#X connect 0 0 12 0;
#X connect 2 0 0 0;
#X connect 2 1 0 1;
#X connect 4 0 3 0;
#X connect 6 0 10 0;
#X connect 7 0 8 0;
#X connect 8 0 2 0;
#X connect 9 0 7 0;
#X connect 9 1 4 0;
#X connect 10 0 9 0;
#X connect 12 0 11 0;
